<?xml version="1.0" encoding="utf-8" standalone="no"?>
<!DOCTYPE svg PUBLIC "-//W3C//DTD SVG 1.1//EN"
  "http://www.w3.org/Graphics/SVG/1.1/DTD/svg11.dtd">
<!-- Created with matplotlib (http://matplotlib.org/) -->
<svg height="345pt" version="1.1" viewBox="0 0 460 345" width="460pt" xmlns="http://www.w3.org/2000/svg" xmlns:xlink="http://www.w3.org/1999/xlink">
 <defs>
  <style type="text/css">
*{stroke-linecap:butt;stroke-linejoin:round;}
  </style>
 </defs>
 <g id="figure_1">
  <g id="patch_1">
   <path d="M 0 345.6 
L 460.8 345.6 
L 460.8 0 
L 0 0 
z
" style="fill:#ffffff;"/>
  </g>
  <g id="axes_1">
   <g id="patch_2">
    <path d="M 57.6 307.584 
L 414.72 307.584 
L 414.72 41.472 
L 57.6 41.472 
z
" style="fill:#ffffff;"/>
   </g>
   <g id="matplotlib.axis_1">
    <g id="xtick_1">
     <g id="line2d_1">
      <path clip-path="url(#pfe63dfec0c)" d="M 62.637743 307.584 
L 62.637743 41.472 
" style="fill:none;opacity:0.2;stroke:#b0b0b0;stroke-linecap:square;stroke-width:0.8;"/>
     </g>
     <g id="line2d_2">
      <defs>
       <path d="M 0 0 
L 0 3.5 
" id="maf222ef69f" style="stroke:#000000;stroke-width:0.8;"/>
      </defs>
      <g>
       <use style="stroke:#000000;stroke-width:0.8;" x="62.637743" xlink:href="#maf222ef69f" y="307.584"/>
      </g>
     </g>
     <g id="text_1">
      <!-- 0 -->
      <defs>
       <path d="M 31.78125 66.40625 
Q 24.171875 66.40625 20.328125 58.90625 
Q 16.5 51.421875 16.5 36.375 
Q 16.5 21.390625 20.328125 13.890625 
Q 24.171875 6.390625 31.78125 6.390625 
Q 39.453125 6.390625 43.28125 13.890625 
Q 47.125 21.390625 47.125 36.375 
Q 47.125 51.421875 43.28125 58.90625 
Q 39.453125 66.40625 31.78125 66.40625 
z
M 31.78125 74.21875 
Q 44.046875 74.21875 50.515625 64.515625 
Q 56.984375 54.828125 56.984375 36.375 
Q 56.984375 17.96875 50.515625 8.265625 
Q 44.046875 -1.421875 31.78125 -1.421875 
Q 19.53125 -1.421875 13.0625 8.265625 
Q 6.59375 17.96875 6.59375 36.375 
Q 6.59375 54.828125 13.0625 64.515625 
Q 19.53125 74.21875 31.78125 74.21875 
z
" id="DejaVuSans-30"/>
      </defs>
      <g transform="translate(59.456493 322.182437)scale(0.1 -0.1)">
       <use xlink:href="#DejaVuSans-30"/>
      </g>
     </g>
    </g>
    <g id="xtick_2">
     <g id="line2d_3">
      <path clip-path="url(#pfe63dfec0c)" d="M 118.612665 307.584 
L 118.612665 41.472 
" style="fill:none;opacity:0.2;stroke:#b0b0b0;stroke-linecap:square;stroke-width:0.8;"/>
     </g>
     <g id="line2d_4">
      <g>
       <use style="stroke:#000000;stroke-width:0.8;" x="118.612665" xlink:href="#maf222ef69f" y="307.584"/>
      </g>
     </g>
     <g id="text_2">
      <!-- 5 -->
      <defs>
       <path d="M 10.796875 72.90625 
L 49.515625 72.90625 
L 49.515625 64.59375 
L 19.828125 64.59375 
L 19.828125 46.734375 
Q 21.96875 47.46875 24.109375 47.828125 
Q 26.265625 48.1875 28.421875 48.1875 
Q 40.625 48.1875 47.75 41.5 
Q 54.890625 34.8125 54.890625 23.390625 
Q 54.890625 11.625 47.5625 5.09375 
Q 40.234375 -1.421875 26.90625 -1.421875 
Q 22.3125 -1.421875 17.546875 -0.640625 
Q 12.796875 0.140625 7.71875 1.703125 
L 7.71875 11.625 
Q 12.109375 9.234375 16.796875 8.0625 
Q 21.484375 6.890625 26.703125 6.890625 
Q 35.15625 6.890625 40.078125 11.328125 
Q 45.015625 15.765625 45.015625 23.390625 
Q 45.015625 31 40.078125 35.4375 
Q 35.15625 39.890625 26.703125 39.890625 
Q 22.75 39.890625 18.8125 39.015625 
Q 14.890625 38.140625 10.796875 36.28125 
z
" id="DejaVuSans-35"/>
      </defs>
      <g transform="translate(115.431415 322.182437)scale(0.1 -0.1)">
       <use xlink:href="#DejaVuSans-35"/>
      </g>
     </g>
    </g>
    <g id="xtick_3">
     <g id="line2d_5">
      <path clip-path="url(#pfe63dfec0c)" d="M 174.587586 307.584 
L 174.587586 41.472 
" style="fill:none;opacity:0.2;stroke:#b0b0b0;stroke-linecap:square;stroke-width:0.8;"/>
     </g>
     <g id="line2d_6">
      <g>
       <use style="stroke:#000000;stroke-width:0.8;" x="174.587586" xlink:href="#maf222ef69f" y="307.584"/>
      </g>
     </g>
     <g id="text_3">
      <!-- 10 -->
      <defs>
       <path d="M 12.40625 8.296875 
L 28.515625 8.296875 
L 28.515625 63.921875 
L 10.984375 60.40625 
L 10.984375 69.390625 
L 28.421875 72.90625 
L 38.28125 72.90625 
L 38.28125 8.296875 
L 54.390625 8.296875 
L 54.390625 0 
L 12.40625 0 
z
" id="DejaVuSans-31"/>
      </defs>
      <g transform="translate(168.225086 322.182437)scale(0.1 -0.1)">
       <use xlink:href="#DejaVuSans-31"/>
       <use x="63.623047" xlink:href="#DejaVuSans-30"/>
      </g>
     </g>
    </g>
    <g id="xtick_4">
     <g id="line2d_7">
      <path clip-path="url(#pfe63dfec0c)" d="M 230.562508 307.584 
L 230.562508 41.472 
" style="fill:none;opacity:0.2;stroke:#b0b0b0;stroke-linecap:square;stroke-width:0.8;"/>
     </g>
     <g id="line2d_8">
      <g>
       <use style="stroke:#000000;stroke-width:0.8;" x="230.562508" xlink:href="#maf222ef69f" y="307.584"/>
      </g>
     </g>
     <g id="text_4">
      <!-- 15 -->
      <g transform="translate(224.200008 322.182437)scale(0.1 -0.1)">
       <use xlink:href="#DejaVuSans-31"/>
       <use x="63.623047" xlink:href="#DejaVuSans-35"/>
      </g>
     </g>
    </g>
    <g id="xtick_5">
     <g id="line2d_9">
      <path clip-path="url(#pfe63dfec0c)" d="M 286.537429 307.584 
L 286.537429 41.472 
" style="fill:none;opacity:0.2;stroke:#b0b0b0;stroke-linecap:square;stroke-width:0.8;"/>
     </g>
     <g id="line2d_10">
      <g>
       <use style="stroke:#000000;stroke-width:0.8;" x="286.537429" xlink:href="#maf222ef69f" y="307.584"/>
      </g>
     </g>
     <g id="text_5">
      <!-- 20 -->
      <defs>
       <path d="M 19.1875 8.296875 
L 53.609375 8.296875 
L 53.609375 0 
L 7.328125 0 
L 7.328125 8.296875 
Q 12.9375 14.109375 22.625 23.890625 
Q 32.328125 33.6875 34.8125 36.53125 
Q 39.546875 41.84375 41.421875 45.53125 
Q 43.3125 49.21875 43.3125 52.78125 
Q 43.3125 58.59375 39.234375 62.25 
Q 35.15625 65.921875 28.609375 65.921875 
Q 23.96875 65.921875 18.8125 64.3125 
Q 13.671875 62.703125 7.8125 59.421875 
L 7.8125 69.390625 
Q 13.765625 71.78125 18.9375 73 
Q 24.125 74.21875 28.421875 74.21875 
Q 39.75 74.21875 46.484375 68.546875 
Q 53.21875 62.890625 53.21875 53.421875 
Q 53.21875 48.921875 51.53125 44.890625 
Q 49.859375 40.875 45.40625 35.40625 
Q 44.1875 33.984375 37.640625 27.21875 
Q 31.109375 20.453125 19.1875 8.296875 
z
" id="DejaVuSans-32"/>
      </defs>
      <g transform="translate(280.174929 322.182437)scale(0.1 -0.1)">
       <use xlink:href="#DejaVuSans-32"/>
       <use x="63.623047" xlink:href="#DejaVuSans-30"/>
      </g>
     </g>
    </g>
    <g id="xtick_6">
     <g id="line2d_11">
      <path clip-path="url(#pfe63dfec0c)" d="M 342.512351 307.584 
L 342.512351 41.472 
" style="fill:none;opacity:0.2;stroke:#b0b0b0;stroke-linecap:square;stroke-width:0.8;"/>
     </g>
     <g id="line2d_12">
      <g>
       <use style="stroke:#000000;stroke-width:0.8;" x="342.512351" xlink:href="#maf222ef69f" y="307.584"/>
      </g>
     </g>
     <g id="text_6">
      <!-- 25 -->
      <g transform="translate(336.149851 322.182437)scale(0.1 -0.1)">
       <use xlink:href="#DejaVuSans-32"/>
       <use x="63.623047" xlink:href="#DejaVuSans-35"/>
      </g>
     </g>
    </g>
    <g id="xtick_7">
     <g id="line2d_13">
      <path clip-path="url(#pfe63dfec0c)" d="M 398.487273 307.584 
L 398.487273 41.472 
" style="fill:none;opacity:0.2;stroke:#b0b0b0;stroke-linecap:square;stroke-width:0.8;"/>
     </g>
     <g id="line2d_14">
      <g>
       <use style="stroke:#000000;stroke-width:0.8;" x="398.487273" xlink:href="#maf222ef69f" y="307.584"/>
      </g>
     </g>
     <g id="text_7">
      <!-- 30 -->
      <defs>
       <path d="M 40.578125 39.3125 
Q 47.65625 37.796875 51.625 33 
Q 55.609375 28.21875 55.609375 21.1875 
Q 55.609375 10.40625 48.1875 4.484375 
Q 40.765625 -1.421875 27.09375 -1.421875 
Q 22.515625 -1.421875 17.65625 -0.515625 
Q 12.796875 0.390625 7.625 2.203125 
L 7.625 11.71875 
Q 11.71875 9.328125 16.59375 8.109375 
Q 21.484375 6.890625 26.8125 6.890625 
Q 36.078125 6.890625 40.9375 10.546875 
Q 45.796875 14.203125 45.796875 21.1875 
Q 45.796875 27.640625 41.28125 31.265625 
Q 36.765625 34.90625 28.71875 34.90625 
L 20.21875 34.90625 
L 20.21875 43.015625 
L 29.109375 43.015625 
Q 36.375 43.015625 40.234375 45.921875 
Q 44.09375 48.828125 44.09375 54.296875 
Q 44.09375 59.90625 40.109375 62.90625 
Q 36.140625 65.921875 28.71875 65.921875 
Q 24.65625 65.921875 20.015625 65.03125 
Q 15.375 64.15625 9.8125 62.3125 
L 9.8125 71.09375 
Q 15.4375 72.65625 20.34375 73.4375 
Q 25.25 74.21875 29.59375 74.21875 
Q 40.828125 74.21875 47.359375 69.109375 
Q 53.90625 64.015625 53.90625 55.328125 
Q 53.90625 49.265625 50.4375 45.09375 
Q 46.96875 40.921875 40.578125 39.3125 
z
" id="DejaVuSans-33"/>
      </defs>
      <g transform="translate(392.124773 322.182437)scale(0.1 -0.1)">
       <use xlink:href="#DejaVuSans-33"/>
       <use x="63.623047" xlink:href="#DejaVuSans-30"/>
      </g>
     </g>
    </g>
    <g id="text_8">
     <!-- benchmark -->
     <defs>
      <path d="M 48.6875 27.296875 
Q 48.6875 37.203125 44.609375 42.84375 
Q 40.53125 48.484375 33.40625 48.484375 
Q 26.265625 48.484375 22.1875 42.84375 
Q 18.109375 37.203125 18.109375 27.296875 
Q 18.109375 17.390625 22.1875 11.75 
Q 26.265625 6.109375 33.40625 6.109375 
Q 40.53125 6.109375 44.609375 11.75 
Q 48.6875 17.390625 48.6875 27.296875 
z
M 18.109375 46.390625 
Q 20.953125 51.265625 25.265625 53.625 
Q 29.59375 56 35.59375 56 
Q 45.5625 56 51.78125 48.09375 
Q 58.015625 40.1875 58.015625 27.296875 
Q 58.015625 14.40625 51.78125 6.484375 
Q 45.5625 -1.421875 35.59375 -1.421875 
Q 29.59375 -1.421875 25.265625 0.953125 
Q 20.953125 3.328125 18.109375 8.203125 
L 18.109375 0 
L 9.078125 0 
L 9.078125 75.984375 
L 18.109375 75.984375 
z
" id="DejaVuSans-62"/>
      <path d="M 56.203125 29.59375 
L 56.203125 25.203125 
L 14.890625 25.203125 
Q 15.484375 15.921875 20.484375 11.0625 
Q 25.484375 6.203125 34.421875 6.203125 
Q 39.59375 6.203125 44.453125 7.46875 
Q 49.3125 8.734375 54.109375 11.28125 
L 54.109375 2.78125 
Q 49.265625 0.734375 44.1875 -0.34375 
Q 39.109375 -1.421875 33.890625 -1.421875 
Q 20.796875 -1.421875 13.15625 6.1875 
Q 5.515625 13.8125 5.515625 26.8125 
Q 5.515625 40.234375 12.765625 48.109375 
Q 20.015625 56 32.328125 56 
Q 43.359375 56 49.78125 48.890625 
Q 56.203125 41.796875 56.203125 29.59375 
z
M 47.21875 32.234375 
Q 47.125 39.59375 43.09375 43.984375 
Q 39.0625 48.390625 32.421875 48.390625 
Q 24.90625 48.390625 20.390625 44.140625 
Q 15.875 39.890625 15.1875 32.171875 
z
" id="DejaVuSans-65"/>
      <path d="M 54.890625 33.015625 
L 54.890625 0 
L 45.90625 0 
L 45.90625 32.71875 
Q 45.90625 40.484375 42.875 44.328125 
Q 39.84375 48.1875 33.796875 48.1875 
Q 26.515625 48.1875 22.3125 43.546875 
Q 18.109375 38.921875 18.109375 30.90625 
L 18.109375 0 
L 9.078125 0 
L 9.078125 54.6875 
L 18.109375 54.6875 
L 18.109375 46.1875 
Q 21.34375 51.125 25.703125 53.5625 
Q 30.078125 56 35.796875 56 
Q 45.21875 56 50.046875 50.171875 
Q 54.890625 44.34375 54.890625 33.015625 
z
" id="DejaVuSans-6e"/>
      <path d="M 48.78125 52.59375 
L 48.78125 44.1875 
Q 44.96875 46.296875 41.140625 47.34375 
Q 37.3125 48.390625 33.40625 48.390625 
Q 24.65625 48.390625 19.8125 42.84375 
Q 14.984375 37.3125 14.984375 27.296875 
Q 14.984375 17.28125 19.8125 11.734375 
Q 24.65625 6.203125 33.40625 6.203125 
Q 37.3125 6.203125 41.140625 7.25 
Q 44.96875 8.296875 48.78125 10.40625 
L 48.78125 2.09375 
Q 45.015625 0.34375 40.984375 -0.53125 
Q 36.96875 -1.421875 32.421875 -1.421875 
Q 20.0625 -1.421875 12.78125 6.34375 
Q 5.515625 14.109375 5.515625 27.296875 
Q 5.515625 40.671875 12.859375 48.328125 
Q 20.21875 56 33.015625 56 
Q 37.15625 56 41.109375 55.140625 
Q 45.0625 54.296875 48.78125 52.59375 
z
" id="DejaVuSans-63"/>
      <path d="M 54.890625 33.015625 
L 54.890625 0 
L 45.90625 0 
L 45.90625 32.71875 
Q 45.90625 40.484375 42.875 44.328125 
Q 39.84375 48.1875 33.796875 48.1875 
Q 26.515625 48.1875 22.3125 43.546875 
Q 18.109375 38.921875 18.109375 30.90625 
L 18.109375 0 
L 9.078125 0 
L 9.078125 75.984375 
L 18.109375 75.984375 
L 18.109375 46.1875 
Q 21.34375 51.125 25.703125 53.5625 
Q 30.078125 56 35.796875 56 
Q 45.21875 56 50.046875 50.171875 
Q 54.890625 44.34375 54.890625 33.015625 
z
" id="DejaVuSans-68"/>
      <path d="M 52 44.1875 
Q 55.375 50.25 60.0625 53.125 
Q 64.75 56 71.09375 56 
Q 79.640625 56 84.28125 50.015625 
Q 88.921875 44.046875 88.921875 33.015625 
L 88.921875 0 
L 79.890625 0 
L 79.890625 32.71875 
Q 79.890625 40.578125 77.09375 44.375 
Q 74.3125 48.1875 68.609375 48.1875 
Q 61.625 48.1875 57.5625 43.546875 
Q 53.515625 38.921875 53.515625 30.90625 
L 53.515625 0 
L 44.484375 0 
L 44.484375 32.71875 
Q 44.484375 40.625 41.703125 44.40625 
Q 38.921875 48.1875 33.109375 48.1875 
Q 26.21875 48.1875 22.15625 43.53125 
Q 18.109375 38.875 18.109375 30.90625 
L 18.109375 0 
L 9.078125 0 
L 9.078125 54.6875 
L 18.109375 54.6875 
L 18.109375 46.1875 
Q 21.1875 51.21875 25.484375 53.609375 
Q 29.78125 56 35.6875 56 
Q 41.65625 56 45.828125 52.96875 
Q 50 49.953125 52 44.1875 
z
" id="DejaVuSans-6d"/>
      <path d="M 34.28125 27.484375 
Q 23.390625 27.484375 19.1875 25 
Q 14.984375 22.515625 14.984375 16.5 
Q 14.984375 11.71875 18.140625 8.90625 
Q 21.296875 6.109375 26.703125 6.109375 
Q 34.1875 6.109375 38.703125 11.40625 
Q 43.21875 16.703125 43.21875 25.484375 
L 43.21875 27.484375 
z
M 52.203125 31.203125 
L 52.203125 0 
L 43.21875 0 
L 43.21875 8.296875 
Q 40.140625 3.328125 35.546875 0.953125 
Q 30.953125 -1.421875 24.3125 -1.421875 
Q 15.921875 -1.421875 10.953125 3.296875 
Q 6 8.015625 6 15.921875 
Q 6 25.140625 12.171875 29.828125 
Q 18.359375 34.515625 30.609375 34.515625 
L 43.21875 34.515625 
L 43.21875 35.40625 
Q 43.21875 41.609375 39.140625 45 
Q 35.0625 48.390625 27.6875 48.390625 
Q 23 48.390625 18.546875 47.265625 
Q 14.109375 46.140625 10.015625 43.890625 
L 10.015625 52.203125 
Q 14.9375 54.109375 19.578125 55.046875 
Q 24.21875 56 28.609375 56 
Q 40.484375 56 46.34375 49.84375 
Q 52.203125 43.703125 52.203125 31.203125 
z
" id="DejaVuSans-61"/>
      <path d="M 41.109375 46.296875 
Q 39.59375 47.171875 37.8125 47.578125 
Q 36.03125 48 33.890625 48 
Q 26.265625 48 22.1875 43.046875 
Q 18.109375 38.09375 18.109375 28.8125 
L 18.109375 0 
L 9.078125 0 
L 9.078125 54.6875 
L 18.109375 54.6875 
L 18.109375 46.1875 
Q 20.953125 51.171875 25.484375 53.578125 
Q 30.03125 56 36.53125 56 
Q 37.453125 56 38.578125 55.875 
Q 39.703125 55.765625 41.0625 55.515625 
z
" id="DejaVuSans-72"/>
      <path d="M 9.078125 75.984375 
L 18.109375 75.984375 
L 18.109375 31.109375 
L 44.921875 54.6875 
L 56.390625 54.6875 
L 27.390625 29.109375 
L 57.625 0 
L 45.90625 0 
L 18.109375 26.703125 
L 18.109375 0 
L 9.078125 0 
z
" id="DejaVuSans-6b"/>
     </defs>
     <g transform="translate(207.937344 335.860562)scale(0.1 -0.1)">
      <use xlink:href="#DejaVuSans-62"/>
      <use x="63.476562" xlink:href="#DejaVuSans-65"/>
      <use x="125" xlink:href="#DejaVuSans-6e"/>
      <use x="188.378906" xlink:href="#DejaVuSans-63"/>
      <use x="243.359375" xlink:href="#DejaVuSans-68"/>
      <use x="306.738281" xlink:href="#DejaVuSans-6d"/>
      <use x="404.150391" xlink:href="#DejaVuSans-61"/>
      <use x="465.429688" xlink:href="#DejaVuSans-72"/>
      <use x="506.542969" xlink:href="#DejaVuSans-6b"/>
     </g>
    </g>
   </g>
   <g id="matplotlib.axis_2">
    <g id="ytick_1">
     <g id="line2d_15">
      <path clip-path="url(#pfe63dfec0c)" d="M 57.6 300.888135 
L 414.72 300.888135 
" style="fill:none;opacity:0.2;stroke:#b0b0b0;stroke-linecap:square;stroke-width:0.8;"/>
     </g>
     <g id="line2d_16">
      <defs>
       <path d="M 0 0 
L -3.5 0 
" id="mf3f74c5a7b" style="stroke:#000000;stroke-width:0.8;"/>
      </defs>
      <g>
       <use style="stroke:#000000;stroke-width:0.8;" x="57.6" xlink:href="#mf3f74c5a7b" y="300.888135"/>
      </g>
     </g>
     <g id="text_9">
      <!-- $\mathdefault{10^{1}}$ -->
      <g transform="translate(33 304.687354)scale(0.1 -0.1)">
       <use transform="translate(0 0.684375)" xlink:href="#DejaVuSans-31"/>
       <use transform="translate(63.623047 0.684375)" xlink:href="#DejaVuSans-30"/>
       <use transform="translate(128.203125 38.965625)scale(0.7)" xlink:href="#DejaVuSans-31"/>
      </g>
     </g>
    </g>
    <g id="ytick_2">
     <g id="line2d_17">
      <path clip-path="url(#pfe63dfec0c)" d="M 57.6 232.68846 
L 414.72 232.68846 
" style="fill:none;opacity:0.2;stroke:#b0b0b0;stroke-linecap:square;stroke-width:0.8;"/>
     </g>
     <g id="line2d_18">
      <g>
       <use style="stroke:#000000;stroke-width:0.8;" x="57.6" xlink:href="#mf3f74c5a7b" y="232.68846"/>
      </g>
     </g>
     <g id="text_10">
      <!-- $\mathdefault{10^{2}}$ -->
      <g transform="translate(33 236.487679)scale(0.1 -0.1)">
       <use transform="translate(0 0.765625)" xlink:href="#DejaVuSans-31"/>
       <use transform="translate(63.623047 0.765625)" xlink:href="#DejaVuSans-30"/>
       <use transform="translate(128.203125 39.046875)scale(0.7)" xlink:href="#DejaVuSans-32"/>
      </g>
     </g>
    </g>
    <g id="ytick_3">
     <g id="line2d_19">
      <path clip-path="url(#pfe63dfec0c)" d="M 57.6 164.488785 
L 414.72 164.488785 
" style="fill:none;opacity:0.2;stroke:#b0b0b0;stroke-linecap:square;stroke-width:0.8;"/>
     </g>
     <g id="line2d_20">
      <g>
       <use style="stroke:#000000;stroke-width:0.8;" x="57.6" xlink:href="#mf3f74c5a7b" y="164.488785"/>
      </g>
     </g>
     <g id="text_11">
      <!-- $\mathdefault{10^{3}}$ -->
      <g transform="translate(33 168.288004)scale(0.1 -0.1)">
       <use transform="translate(0 0.765625)" xlink:href="#DejaVuSans-31"/>
       <use transform="translate(63.623047 0.765625)" xlink:href="#DejaVuSans-30"/>
       <use transform="translate(128.203125 39.046875)scale(0.7)" xlink:href="#DejaVuSans-33"/>
      </g>
     </g>
    </g>
    <g id="ytick_4">
     <g id="line2d_21">
      <path clip-path="url(#pfe63dfec0c)" d="M 57.6 96.28911 
L 414.72 96.28911 
" style="fill:none;opacity:0.2;stroke:#b0b0b0;stroke-linecap:square;stroke-width:0.8;"/>
     </g>
     <g id="line2d_22">
      <g>
       <use style="stroke:#000000;stroke-width:0.8;" x="57.6" xlink:href="#mf3f74c5a7b" y="96.28911"/>
      </g>
     </g>
     <g id="text_12">
      <!-- $\mathdefault{10^{4}}$ -->
      <defs>
       <path d="M 37.796875 64.3125 
L 12.890625 25.390625 
L 37.796875 25.390625 
z
M 35.203125 72.90625 
L 47.609375 72.90625 
L 47.609375 25.390625 
L 58.015625 25.390625 
L 58.015625 17.1875 
L 47.609375 17.1875 
L 47.609375 0 
L 37.796875 0 
L 37.796875 17.1875 
L 4.890625 17.1875 
L 4.890625 26.703125 
z
" id="DejaVuSans-34"/>
      </defs>
      <g transform="translate(33 100.088329)scale(0.1 -0.1)">
       <use transform="translate(0 0.684375)" xlink:href="#DejaVuSans-31"/>
       <use transform="translate(63.623047 0.684375)" xlink:href="#DejaVuSans-30"/>
       <use transform="translate(128.203125 38.965625)scale(0.7)" xlink:href="#DejaVuSans-34"/>
      </g>
     </g>
    </g>
    <g id="ytick_5">
     <g id="line2d_23">
      <defs>
       <path d="M 0 0 
L -2 0 
" id="m163af7a352" style="stroke:#000000;stroke-width:0.6;"/>
      </defs>
      <g>
       <use style="stroke:#000000;stroke-width:0.6;" x="57.6" xlink:href="#m163af7a352" y="307.497367"/>
      </g>
     </g>
    </g>
    <g id="ytick_6">
     <g id="line2d_24">
      <g>
       <use style="stroke:#000000;stroke-width:0.6;" x="57.6" xlink:href="#m163af7a352" y="304.008781"/>
      </g>
     </g>
    </g>
    <g id="ytick_7">
     <g id="line2d_25">
      <g>
       <use style="stroke:#000000;stroke-width:0.6;" x="57.6" xlink:href="#m163af7a352" y="280.357987"/>
      </g>
     </g>
    </g>
    <g id="ytick_8">
     <g id="line2d_26">
      <g>
       <use style="stroke:#000000;stroke-width:0.6;" x="57.6" xlink:href="#m163af7a352" y="268.348621"/>
      </g>
     </g>
    </g>
    <g id="ytick_9">
     <g id="line2d_27">
      <g>
       <use style="stroke:#000000;stroke-width:0.6;" x="57.6" xlink:href="#m163af7a352" y="259.82784"/>
      </g>
     </g>
    </g>
    <g id="ytick_10">
     <g id="line2d_28">
      <g>
       <use style="stroke:#000000;stroke-width:0.6;" x="57.6" xlink:href="#m163af7a352" y="253.218608"/>
      </g>
     </g>
    </g>
    <g id="ytick_11">
     <g id="line2d_29">
      <g>
       <use style="stroke:#000000;stroke-width:0.6;" x="57.6" xlink:href="#m163af7a352" y="247.818473"/>
      </g>
     </g>
    </g>
    <g id="ytick_12">
     <g id="line2d_30">
      <g>
       <use style="stroke:#000000;stroke-width:0.6;" x="57.6" xlink:href="#m163af7a352" y="243.252724"/>
      </g>
     </g>
    </g>
    <g id="ytick_13">
     <g id="line2d_31">
      <g>
       <use style="stroke:#000000;stroke-width:0.6;" x="57.6" xlink:href="#m163af7a352" y="239.297692"/>
      </g>
     </g>
    </g>
    <g id="ytick_14">
     <g id="line2d_32">
      <g>
       <use style="stroke:#000000;stroke-width:0.6;" x="57.6" xlink:href="#m163af7a352" y="235.809106"/>
      </g>
     </g>
    </g>
    <g id="ytick_15">
     <g id="line2d_33">
      <g>
       <use style="stroke:#000000;stroke-width:0.6;" x="57.6" xlink:href="#m163af7a352" y="212.158312"/>
      </g>
     </g>
    </g>
    <g id="ytick_16">
     <g id="line2d_34">
      <g>
       <use style="stroke:#000000;stroke-width:0.6;" x="57.6" xlink:href="#m163af7a352" y="200.148946"/>
      </g>
     </g>
    </g>
    <g id="ytick_17">
     <g id="line2d_35">
      <g>
       <use style="stroke:#000000;stroke-width:0.6;" x="57.6" xlink:href="#m163af7a352" y="191.628165"/>
      </g>
     </g>
    </g>
    <g id="ytick_18">
     <g id="line2d_36">
      <g>
       <use style="stroke:#000000;stroke-width:0.6;" x="57.6" xlink:href="#m163af7a352" y="185.018933"/>
      </g>
     </g>
    </g>
    <g id="ytick_19">
     <g id="line2d_37">
      <g>
       <use style="stroke:#000000;stroke-width:0.6;" x="57.6" xlink:href="#m163af7a352" y="179.618798"/>
      </g>
     </g>
    </g>
    <g id="ytick_20">
     <g id="line2d_38">
      <g>
       <use style="stroke:#000000;stroke-width:0.6;" x="57.6" xlink:href="#m163af7a352" y="175.053049"/>
      </g>
     </g>
    </g>
    <g id="ytick_21">
     <g id="line2d_39">
      <g>
       <use style="stroke:#000000;stroke-width:0.6;" x="57.6" xlink:href="#m163af7a352" y="171.098017"/>
      </g>
     </g>
    </g>
    <g id="ytick_22">
     <g id="line2d_40">
      <g>
       <use style="stroke:#000000;stroke-width:0.6;" x="57.6" xlink:href="#m163af7a352" y="167.609431"/>
      </g>
     </g>
    </g>
    <g id="ytick_23">
     <g id="line2d_41">
      <g>
       <use style="stroke:#000000;stroke-width:0.6;" x="57.6" xlink:href="#m163af7a352" y="143.958638"/>
      </g>
     </g>
    </g>
    <g id="ytick_24">
     <g id="line2d_42">
      <g>
       <use style="stroke:#000000;stroke-width:0.6;" x="57.6" xlink:href="#m163af7a352" y="131.949271"/>
      </g>
     </g>
    </g>
    <g id="ytick_25">
     <g id="line2d_43">
      <g>
       <use style="stroke:#000000;stroke-width:0.6;" x="57.6" xlink:href="#m163af7a352" y="123.42849"/>
      </g>
     </g>
    </g>
    <g id="ytick_26">
     <g id="line2d_44">
      <g>
       <use style="stroke:#000000;stroke-width:0.6;" x="57.6" xlink:href="#m163af7a352" y="116.819258"/>
      </g>
     </g>
    </g>
    <g id="ytick_27">
     <g id="line2d_45">
      <g>
       <use style="stroke:#000000;stroke-width:0.6;" x="57.6" xlink:href="#m163af7a352" y="111.419123"/>
      </g>
     </g>
    </g>
    <g id="ytick_28">
     <g id="line2d_46">
      <g>
       <use style="stroke:#000000;stroke-width:0.6;" x="57.6" xlink:href="#m163af7a352" y="106.853374"/>
      </g>
     </g>
    </g>
    <g id="ytick_29">
     <g id="line2d_47">
      <g>
       <use style="stroke:#000000;stroke-width:0.6;" x="57.6" xlink:href="#m163af7a352" y="102.898342"/>
      </g>
     </g>
    </g>
    <g id="ytick_30">
     <g id="line2d_48">
      <g>
       <use style="stroke:#000000;stroke-width:0.6;" x="57.6" xlink:href="#m163af7a352" y="99.409756"/>
      </g>
     </g>
    </g>
    <g id="ytick_31">
     <g id="line2d_49">
      <g>
       <use style="stroke:#000000;stroke-width:0.6;" x="57.6" xlink:href="#m163af7a352" y="75.758963"/>
      </g>
     </g>
    </g>
    <g id="ytick_32">
     <g id="line2d_50">
      <g>
       <use style="stroke:#000000;stroke-width:0.6;" x="57.6" xlink:href="#m163af7a352" y="63.749596"/>
      </g>
     </g>
    </g>
    <g id="ytick_33">
     <g id="line2d_51">
      <g>
       <use style="stroke:#000000;stroke-width:0.6;" x="57.6" xlink:href="#m163af7a352" y="55.228815"/>
      </g>
     </g>
    </g>
    <g id="ytick_34">
     <g id="line2d_52">
      <g>
       <use style="stroke:#000000;stroke-width:0.6;" x="57.6" xlink:href="#m163af7a352" y="48.619583"/>
      </g>
     </g>
    </g>
    <g id="ytick_35">
     <g id="line2d_53">
      <g>
       <use style="stroke:#000000;stroke-width:0.6;" x="57.6" xlink:href="#m163af7a352" y="43.219448"/>
      </g>
     </g>
    </g>
    <g id="text_13">
     <!-- time, sec, logscale -->
     <defs>
      <path d="M 18.3125 70.21875 
L 18.3125 54.6875 
L 36.8125 54.6875 
L 36.8125 47.703125 
L 18.3125 47.703125 
L 18.3125 18.015625 
Q 18.3125 11.328125 20.140625 9.421875 
Q 21.96875 7.515625 27.59375 7.515625 
L 36.8125 7.515625 
L 36.8125 0 
L 27.59375 0 
Q 17.1875 0 13.234375 3.875 
Q 9.28125 7.765625 9.28125 18.015625 
L 9.28125 47.703125 
L 2.6875 47.703125 
L 2.6875 54.6875 
L 9.28125 54.6875 
L 9.28125 70.21875 
z
" id="DejaVuSans-74"/>
      <path d="M 9.421875 54.6875 
L 18.40625 54.6875 
L 18.40625 0 
L 9.421875 0 
z
M 9.421875 75.984375 
L 18.40625 75.984375 
L 18.40625 64.59375 
L 9.421875 64.59375 
z
" id="DejaVuSans-69"/>
      <path d="M 11.71875 12.40625 
L 22.015625 12.40625 
L 22.015625 4 
L 14.015625 -11.625 
L 7.71875 -11.625 
L 11.71875 4 
z
" id="DejaVuSans-2c"/>
      <path id="DejaVuSans-20"/>
      <path d="M 44.28125 53.078125 
L 44.28125 44.578125 
Q 40.484375 46.53125 36.375 47.5 
Q 32.28125 48.484375 27.875 48.484375 
Q 21.1875 48.484375 17.84375 46.4375 
Q 14.5 44.390625 14.5 40.28125 
Q 14.5 37.15625 16.890625 35.375 
Q 19.28125 33.59375 26.515625 31.984375 
L 29.59375 31.296875 
Q 39.15625 29.25 43.1875 25.515625 
Q 47.21875 21.78125 47.21875 15.09375 
Q 47.21875 7.46875 41.1875 3.015625 
Q 35.15625 -1.421875 24.609375 -1.421875 
Q 20.21875 -1.421875 15.453125 -0.5625 
Q 10.6875 0.296875 5.421875 2 
L 5.421875 11.28125 
Q 10.40625 8.6875 15.234375 7.390625 
Q 20.0625 6.109375 24.8125 6.109375 
Q 31.15625 6.109375 34.5625 8.28125 
Q 37.984375 10.453125 37.984375 14.40625 
Q 37.984375 18.0625 35.515625 20.015625 
Q 33.0625 21.96875 24.703125 23.78125 
L 21.578125 24.515625 
Q 13.234375 26.265625 9.515625 29.90625 
Q 5.8125 33.546875 5.8125 39.890625 
Q 5.8125 47.609375 11.28125 51.796875 
Q 16.75 56 26.8125 56 
Q 31.78125 56 36.171875 55.265625 
Q 40.578125 54.546875 44.28125 53.078125 
z
" id="DejaVuSans-73"/>
      <path d="M 9.421875 75.984375 
L 18.40625 75.984375 
L 18.40625 0 
L 9.421875 0 
z
" id="DejaVuSans-6c"/>
      <path d="M 30.609375 48.390625 
Q 23.390625 48.390625 19.1875 42.75 
Q 14.984375 37.109375 14.984375 27.296875 
Q 14.984375 17.484375 19.15625 11.84375 
Q 23.34375 6.203125 30.609375 6.203125 
Q 37.796875 6.203125 41.984375 11.859375 
Q 46.1875 17.53125 46.1875 27.296875 
Q 46.1875 37.015625 41.984375 42.703125 
Q 37.796875 48.390625 30.609375 48.390625 
z
M 30.609375 56 
Q 42.328125 56 49.015625 48.375 
Q 55.71875 40.765625 55.71875 27.296875 
Q 55.71875 13.875 49.015625 6.21875 
Q 42.328125 -1.421875 30.609375 -1.421875 
Q 18.84375 -1.421875 12.171875 6.21875 
Q 5.515625 13.875 5.515625 27.296875 
Q 5.515625 40.765625 12.171875 48.375 
Q 18.84375 56 30.609375 56 
z
" id="DejaVuSans-6f"/>
      <path d="M 45.40625 27.984375 
Q 45.40625 37.75 41.375 43.109375 
Q 37.359375 48.484375 30.078125 48.484375 
Q 22.859375 48.484375 18.828125 43.109375 
Q 14.796875 37.75 14.796875 27.984375 
Q 14.796875 18.265625 18.828125 12.890625 
Q 22.859375 7.515625 30.078125 7.515625 
Q 37.359375 7.515625 41.375 12.890625 
Q 45.40625 18.265625 45.40625 27.984375 
z
M 54.390625 6.78125 
Q 54.390625 -7.171875 48.1875 -13.984375 
Q 42 -20.796875 29.203125 -20.796875 
Q 24.46875 -20.796875 20.265625 -20.09375 
Q 16.0625 -19.390625 12.109375 -17.921875 
L 12.109375 -9.1875 
Q 16.0625 -11.328125 19.921875 -12.34375 
Q 23.78125 -13.375 27.78125 -13.375 
Q 36.625 -13.375 41.015625 -8.765625 
Q 45.40625 -4.15625 45.40625 5.171875 
L 45.40625 9.625 
Q 42.625 4.78125 38.28125 2.390625 
Q 33.9375 0 27.875 0 
Q 17.828125 0 11.671875 7.65625 
Q 5.515625 15.328125 5.515625 27.984375 
Q 5.515625 40.671875 11.671875 48.328125 
Q 17.828125 56 27.875 56 
Q 33.9375 56 38.28125 53.609375 
Q 42.625 51.21875 45.40625 46.390625 
L 45.40625 54.6875 
L 54.390625 54.6875 
z
" id="DejaVuSans-67"/>
     </defs>
     <g transform="translate(26.920312 221.117063)rotate(-90)scale(0.1 -0.1)">
      <use xlink:href="#DejaVuSans-74"/>
      <use x="39.208984" xlink:href="#DejaVuSans-69"/>
      <use x="66.992188" xlink:href="#DejaVuSans-6d"/>
      <use x="164.404297" xlink:href="#DejaVuSans-65"/>
      <use x="225.927734" xlink:href="#DejaVuSans-2c"/>
      <use x="257.714844" xlink:href="#DejaVuSans-20"/>
      <use x="289.501953" xlink:href="#DejaVuSans-73"/>
      <use x="341.601562" xlink:href="#DejaVuSans-65"/>
      <use x="403.125" xlink:href="#DejaVuSans-63"/>
      <use x="458.105469" xlink:href="#DejaVuSans-2c"/>
      <use x="489.892578" xlink:href="#DejaVuSans-20"/>
      <use x="521.679688" xlink:href="#DejaVuSans-6c"/>
      <use x="549.462891" xlink:href="#DejaVuSans-6f"/>
      <use x="610.644531" xlink:href="#DejaVuSans-67"/>
      <use x="674.121094" xlink:href="#DejaVuSans-73"/>
      <use x="726.220703" xlink:href="#DejaVuSans-63"/>
      <use x="781.201172" xlink:href="#DejaVuSans-61"/>
      <use x="842.480469" xlink:href="#DejaVuSans-6c"/>
      <use x="870.263672" xlink:href="#DejaVuSans-65"/>
     </g>
    </g>
   </g>
   <g id="line2d_54">
    <path clip-path="url(#pfe63dfec0c)" d="M 73.832727 156.695111 
L 85.027712 158.477933 
L 96.222696 160.452414 
L 107.41768 138.669781 
L 118.612665 137.947785 
L 129.807649 96.37513 
L 141.002633 97.197381 
L 152.197618 98.438563 
L 163.392602 53.568 
L 174.587586 54.164136 
L 185.782571 191.77663 
L 196.977555 162.457153 
L 208.172539 151.931632 
L 219.367524 175.308018 
L 230.562508 146.044462 
L 241.757492 138.843717 
L 252.952476 125.434971 
L 264.147461 125.569981 
L 275.342445 98.707303 
L 286.537429 97.154655 
L 297.732414 295.488 
L 308.927398 283.478633 
L 320.122382 273.748756 
L 331.317367 293.117236 
L 342.512351 281.87723 
L 353.707335 276.218414 
L 364.90232 264.641446 
L 376.097304 258.382736 
L 387.292288 257.685792 
L 398.487273 248.316279 
" style="fill:none;opacity:0.7;stroke:#ff0000;stroke-linecap:square;stroke-width:1.5;"/>
    <defs>
     <path d="M -3 3 
L 3 3 
L 3 -3 
L -3 -3 
z
" id="m8b6071f1b3" style="stroke:#ff0000;stroke-linejoin:miter;"/>
    </defs>
    <g clip-path="url(#pfe63dfec0c)">
     <use style="fill:#ff0000;opacity:0.7;stroke:#ff0000;stroke-linejoin:miter;" x="73.832727" xlink:href="#m8b6071f1b3" y="156.695111"/>
     <use style="fill:#ff0000;opacity:0.7;stroke:#ff0000;stroke-linejoin:miter;" x="85.027712" xlink:href="#m8b6071f1b3" y="158.477933"/>
     <use style="fill:#ff0000;opacity:0.7;stroke:#ff0000;stroke-linejoin:miter;" x="96.222696" xlink:href="#m8b6071f1b3" y="160.452414"/>
     <use style="fill:#ff0000;opacity:0.7;stroke:#ff0000;stroke-linejoin:miter;" x="107.41768" xlink:href="#m8b6071f1b3" y="138.669781"/>
     <use style="fill:#ff0000;opacity:0.7;stroke:#ff0000;stroke-linejoin:miter;" x="118.612665" xlink:href="#m8b6071f1b3" y="137.947785"/>
     <use style="fill:#ff0000;opacity:0.7;stroke:#ff0000;stroke-linejoin:miter;" x="129.807649" xlink:href="#m8b6071f1b3" y="96.37513"/>
     <use style="fill:#ff0000;opacity:0.7;stroke:#ff0000;stroke-linejoin:miter;" x="141.002633" xlink:href="#m8b6071f1b3" y="97.197381"/>
     <use style="fill:#ff0000;opacity:0.7;stroke:#ff0000;stroke-linejoin:miter;" x="152.197618" xlink:href="#m8b6071f1b3" y="98.438563"/>
     <use style="fill:#ff0000;opacity:0.7;stroke:#ff0000;stroke-linejoin:miter;" x="163.392602" xlink:href="#m8b6071f1b3" y="53.568"/>
     <use style="fill:#ff0000;opacity:0.7;stroke:#ff0000;stroke-linejoin:miter;" x="174.587586" xlink:href="#m8b6071f1b3" y="54.164136"/>
     <use style="fill:#ff0000;opacity:0.7;stroke:#ff0000;stroke-linejoin:miter;" x="185.782571" xlink:href="#m8b6071f1b3" y="191.77663"/>
     <use style="fill:#ff0000;opacity:0.7;stroke:#ff0000;stroke-linejoin:miter;" x="196.977555" xlink:href="#m8b6071f1b3" y="162.457153"/>
     <use style="fill:#ff0000;opacity:0.7;stroke:#ff0000;stroke-linejoin:miter;" x="208.172539" xlink:href="#m8b6071f1b3" y="151.931632"/>
     <use style="fill:#ff0000;opacity:0.7;stroke:#ff0000;stroke-linejoin:miter;" x="219.367524" xlink:href="#m8b6071f1b3" y="175.308018"/>
     <use style="fill:#ff0000;opacity:0.7;stroke:#ff0000;stroke-linejoin:miter;" x="230.562508" xlink:href="#m8b6071f1b3" y="146.044462"/>
     <use style="fill:#ff0000;opacity:0.7;stroke:#ff0000;stroke-linejoin:miter;" x="241.757492" xlink:href="#m8b6071f1b3" y="138.843717"/>
     <use style="fill:#ff0000;opacity:0.7;stroke:#ff0000;stroke-linejoin:miter;" x="252.952476" xlink:href="#m8b6071f1b3" y="125.434971"/>
     <use style="fill:#ff0000;opacity:0.7;stroke:#ff0000;stroke-linejoin:miter;" x="264.147461" xlink:href="#m8b6071f1b3" y="125.569981"/>
     <use style="fill:#ff0000;opacity:0.7;stroke:#ff0000;stroke-linejoin:miter;" x="275.342445" xlink:href="#m8b6071f1b3" y="98.707303"/>
     <use style="fill:#ff0000;opacity:0.7;stroke:#ff0000;stroke-linejoin:miter;" x="286.537429" xlink:href="#m8b6071f1b3" y="97.154655"/>
     <use style="fill:#ff0000;opacity:0.7;stroke:#ff0000;stroke-linejoin:miter;" x="297.732414" xlink:href="#m8b6071f1b3" y="295.488"/>
     <use style="fill:#ff0000;opacity:0.7;stroke:#ff0000;stroke-linejoin:miter;" x="308.927398" xlink:href="#m8b6071f1b3" y="283.478633"/>
     <use style="fill:#ff0000;opacity:0.7;stroke:#ff0000;stroke-linejoin:miter;" x="320.122382" xlink:href="#m8b6071f1b3" y="273.748756"/>
     <use style="fill:#ff0000;opacity:0.7;stroke:#ff0000;stroke-linejoin:miter;" x="331.317367" xlink:href="#m8b6071f1b3" y="293.117236"/>
     <use style="fill:#ff0000;opacity:0.7;stroke:#ff0000;stroke-linejoin:miter;" x="342.512351" xlink:href="#m8b6071f1b3" y="281.87723"/>
     <use style="fill:#ff0000;opacity:0.7;stroke:#ff0000;stroke-linejoin:miter;" x="353.707335" xlink:href="#m8b6071f1b3" y="276.218414"/>
     <use style="fill:#ff0000;opacity:0.7;stroke:#ff0000;stroke-linejoin:miter;" x="364.90232" xlink:href="#m8b6071f1b3" y="264.641446"/>
     <use style="fill:#ff0000;opacity:0.7;stroke:#ff0000;stroke-linejoin:miter;" x="376.097304" xlink:href="#m8b6071f1b3" y="258.382736"/>
     <use style="fill:#ff0000;opacity:0.7;stroke:#ff0000;stroke-linejoin:miter;" x="387.292288" xlink:href="#m8b6071f1b3" y="257.685792"/>
     <use style="fill:#ff0000;opacity:0.7;stroke:#ff0000;stroke-linejoin:miter;" x="398.487273" xlink:href="#m8b6071f1b3" y="248.316279"/>
    </g>
   </g>
   <g id="line2d_55">
    <path clip-path="url(#pfe63dfec0c)" d="M 73.832727 172.734407 
L 85.027712 174.425066 
L 96.222696 180.622919 
L 107.41768 152.637808 
L 118.612665 157.690598 
L 129.807649 128.733996 
L 141.002633 129.234204 
L 152.197618 132.678907 
L 163.392602 93.331817 
L 174.587586 98.260749 
L 185.782571 201.564445 
L 196.977555 169.337258 
L 208.172539 153.791537 
L 219.367524 186.977911 
L 230.562508 154.586438 
L 241.757492 158.069723 
L 252.952476 136.051351 
L 264.147461 135.904303 
L 275.342445 130.298026 
L 286.537429 124.384137 
L 297.732414 295.488 
L 308.927398 285.171594 
L 320.122382 273.748756 
L 331.317367 293.117236 
L 342.512351 280.357987 
L 353.707335 274.957852 
L 364.90232 265.525653 
L 376.097304 257.004872 
L 387.292288 256.339254 
L 398.487273 250.39564 
" style="fill:none;opacity:0.7;stroke:#0000ff;stroke-linecap:square;stroke-width:1.5;"/>
    <defs>
     <path d="M 0 3 
C 0.795609 3 1.55874 2.683901 2.12132 2.12132 
C 2.683901 1.55874 3 0.795609 3 0 
C 3 -0.795609 2.683901 -1.55874 2.12132 -2.12132 
C 1.55874 -2.683901 0.795609 -3 0 -3 
C -0.795609 -3 -1.55874 -2.683901 -2.12132 -2.12132 
C -2.683901 -1.55874 -3 -0.795609 -3 0 
C -3 0.795609 -2.683901 1.55874 -2.12132 2.12132 
C -1.55874 2.683901 -0.795609 3 0 3 
z
" id="m7ccf6d2c0e" style="stroke:#0000ff;"/>
    </defs>
    <g clip-path="url(#pfe63dfec0c)">
     <use style="fill:#0000ff;opacity:0.7;stroke:#0000ff;" x="73.832727" xlink:href="#m7ccf6d2c0e" y="172.734407"/>
     <use style="fill:#0000ff;opacity:0.7;stroke:#0000ff;" x="85.027712" xlink:href="#m7ccf6d2c0e" y="174.425066"/>
     <use style="fill:#0000ff;opacity:0.7;stroke:#0000ff;" x="96.222696" xlink:href="#m7ccf6d2c0e" y="180.622919"/>
     <use style="fill:#0000ff;opacity:0.7;stroke:#0000ff;" x="107.41768" xlink:href="#m7ccf6d2c0e" y="152.637808"/>
     <use style="fill:#0000ff;opacity:0.7;stroke:#0000ff;" x="118.612665" xlink:href="#m7ccf6d2c0e" y="157.690598"/>
     <use style="fill:#0000ff;opacity:0.7;stroke:#0000ff;" x="129.807649" xlink:href="#m7ccf6d2c0e" y="128.733996"/>
     <use style="fill:#0000ff;opacity:0.7;stroke:#0000ff;" x="141.002633" xlink:href="#m7ccf6d2c0e" y="129.234204"/>
     <use style="fill:#0000ff;opacity:0.7;stroke:#0000ff;" x="152.197618" xlink:href="#m7ccf6d2c0e" y="132.678907"/>
     <use style="fill:#0000ff;opacity:0.7;stroke:#0000ff;" x="163.392602" xlink:href="#m7ccf6d2c0e" y="93.331817"/>
     <use style="fill:#0000ff;opacity:0.7;stroke:#0000ff;" x="174.587586" xlink:href="#m7ccf6d2c0e" y="98.260749"/>
     <use style="fill:#0000ff;opacity:0.7;stroke:#0000ff;" x="185.782571" xlink:href="#m7ccf6d2c0e" y="201.564445"/>
     <use style="fill:#0000ff;opacity:0.7;stroke:#0000ff;" x="196.977555" xlink:href="#m7ccf6d2c0e" y="169.337258"/>
     <use style="fill:#0000ff;opacity:0.7;stroke:#0000ff;" x="208.172539" xlink:href="#m7ccf6d2c0e" y="153.791537"/>
     <use style="fill:#0000ff;opacity:0.7;stroke:#0000ff;" x="219.367524" xlink:href="#m7ccf6d2c0e" y="186.977911"/>
     <use style="fill:#0000ff;opacity:0.7;stroke:#0000ff;" x="230.562508" xlink:href="#m7ccf6d2c0e" y="154.586438"/>
     <use style="fill:#0000ff;opacity:0.7;stroke:#0000ff;" x="241.757492" xlink:href="#m7ccf6d2c0e" y="158.069723"/>
     <use style="fill:#0000ff;opacity:0.7;stroke:#0000ff;" x="252.952476" xlink:href="#m7ccf6d2c0e" y="136.051351"/>
     <use style="fill:#0000ff;opacity:0.7;stroke:#0000ff;" x="264.147461" xlink:href="#m7ccf6d2c0e" y="135.904303"/>
     <use style="fill:#0000ff;opacity:0.7;stroke:#0000ff;" x="275.342445" xlink:href="#m7ccf6d2c0e" y="130.298026"/>
     <use style="fill:#0000ff;opacity:0.7;stroke:#0000ff;" x="286.537429" xlink:href="#m7ccf6d2c0e" y="124.384137"/>
     <use style="fill:#0000ff;opacity:0.7;stroke:#0000ff;" x="297.732414" xlink:href="#m7ccf6d2c0e" y="295.488"/>
     <use style="fill:#0000ff;opacity:0.7;stroke:#0000ff;" x="308.927398" xlink:href="#m7ccf6d2c0e" y="285.171594"/>
     <use style="fill:#0000ff;opacity:0.7;stroke:#0000ff;" x="320.122382" xlink:href="#m7ccf6d2c0e" y="273.748756"/>
     <use style="fill:#0000ff;opacity:0.7;stroke:#0000ff;" x="331.317367" xlink:href="#m7ccf6d2c0e" y="293.117236"/>
     <use style="fill:#0000ff;opacity:0.7;stroke:#0000ff;" x="342.512351" xlink:href="#m7ccf6d2c0e" y="280.357987"/>
     <use style="fill:#0000ff;opacity:0.7;stroke:#0000ff;" x="353.707335" xlink:href="#m7ccf6d2c0e" y="274.957852"/>
     <use style="fill:#0000ff;opacity:0.7;stroke:#0000ff;" x="364.90232" xlink:href="#m7ccf6d2c0e" y="265.525653"/>
     <use style="fill:#0000ff;opacity:0.7;stroke:#0000ff;" x="376.097304" xlink:href="#m7ccf6d2c0e" y="257.004872"/>
     <use style="fill:#0000ff;opacity:0.7;stroke:#0000ff;" x="387.292288" xlink:href="#m7ccf6d2c0e" y="256.339254"/>
     <use style="fill:#0000ff;opacity:0.7;stroke:#0000ff;" x="398.487273" xlink:href="#m7ccf6d2c0e" y="250.39564"/>
    </g>
   </g>
   <g id="patch_3">
    <path d="M 57.6 307.584 
L 57.6 41.472 
" style="fill:none;stroke:#000000;stroke-linecap:square;stroke-linejoin:miter;stroke-width:0.8;"/>
   </g>
   <g id="patch_4">
    <path d="M 414.72 307.584 
L 414.72 41.472 
" style="fill:none;stroke:#000000;stroke-linecap:square;stroke-linejoin:miter;stroke-width:0.8;"/>
   </g>
   <g id="patch_5">
    <path d="M 57.6 307.584 
L 414.72 307.584 
" style="fill:none;stroke:#000000;stroke-linecap:square;stroke-linejoin:miter;stroke-width:0.8;"/>
   </g>
   <g id="patch_6">
    <path d="M 57.6 41.472 
L 414.72 41.472 
" style="fill:none;stroke:#000000;stroke-linecap:square;stroke-linejoin:miter;stroke-width:0.8;"/>
   </g>
   <g id="legend_1">
    <g id="patch_7">
     <path d="M 230.209062 78.82825 
L 407.72 78.82825 
Q 409.72 78.82825 409.72 76.82825 
L 409.72 48.472 
Q 409.72 46.472 407.72 46.472 
L 230.209062 46.472 
Q 228.209062 46.472 228.209062 48.472 
L 228.209062 76.82825 
Q 228.209062 78.82825 230.209062 78.82825 
z
" style="fill:#ffffff;opacity:0.8;stroke:#cccccc;stroke-linejoin:miter;"/>
    </g>
    <g id="line2d_56">
     <path d="M 232.209062 54.570437 
L 252.209062 54.570437 
" style="fill:none;opacity:0.7;stroke:#ff0000;stroke-linecap:square;stroke-width:1.5;"/>
    </g>
    <g id="line2d_57">
     <g>
      <use style="fill:#ff0000;opacity:0.7;stroke:#ff0000;stroke-linejoin:miter;" x="242.209062" xlink:href="#m8b6071f1b3" y="54.570437"/>
     </g>
    </g>
    <g id="text_14">
     <!-- 001indinv-apalache-unstable -->
     <defs>
      <path d="M 45.40625 46.390625 
L 45.40625 75.984375 
L 54.390625 75.984375 
L 54.390625 0 
L 45.40625 0 
L 45.40625 8.203125 
Q 42.578125 3.328125 38.25 0.953125 
Q 33.9375 -1.421875 27.875 -1.421875 
Q 17.96875 -1.421875 11.734375 6.484375 
Q 5.515625 14.40625 5.515625 27.296875 
Q 5.515625 40.1875 11.734375 48.09375 
Q 17.96875 56 27.875 56 
Q 33.9375 56 38.25 53.625 
Q 42.578125 51.265625 45.40625 46.390625 
z
M 14.796875 27.296875 
Q 14.796875 17.390625 18.875 11.75 
Q 22.953125 6.109375 30.078125 6.109375 
Q 37.203125 6.109375 41.296875 11.75 
Q 45.40625 17.390625 45.40625 27.296875 
Q 45.40625 37.203125 41.296875 42.84375 
Q 37.203125 48.484375 30.078125 48.484375 
Q 22.953125 48.484375 18.875 42.84375 
Q 14.796875 37.203125 14.796875 27.296875 
z
" id="DejaVuSans-64"/>
      <path d="M 2.984375 54.6875 
L 12.5 54.6875 
L 29.59375 8.796875 
L 46.6875 54.6875 
L 56.203125 54.6875 
L 35.6875 0 
L 23.484375 0 
z
" id="DejaVuSans-76"/>
      <path d="M 4.890625 31.390625 
L 31.203125 31.390625 
L 31.203125 23.390625 
L 4.890625 23.390625 
z
" id="DejaVuSans-2d"/>
      <path d="M 18.109375 8.203125 
L 18.109375 -20.796875 
L 9.078125 -20.796875 
L 9.078125 54.6875 
L 18.109375 54.6875 
L 18.109375 46.390625 
Q 20.953125 51.265625 25.265625 53.625 
Q 29.59375 56 35.59375 56 
Q 45.5625 56 51.78125 48.09375 
Q 58.015625 40.1875 58.015625 27.296875 
Q 58.015625 14.40625 51.78125 6.484375 
Q 45.5625 -1.421875 35.59375 -1.421875 
Q 29.59375 -1.421875 25.265625 0.953125 
Q 20.953125 3.328125 18.109375 8.203125 
z
M 48.6875 27.296875 
Q 48.6875 37.203125 44.609375 42.84375 
Q 40.53125 48.484375 33.40625 48.484375 
Q 26.265625 48.484375 22.1875 42.84375 
Q 18.109375 37.203125 18.109375 27.296875 
Q 18.109375 17.390625 22.1875 11.75 
Q 26.265625 6.109375 33.40625 6.109375 
Q 40.53125 6.109375 44.609375 11.75 
Q 48.6875 17.390625 48.6875 27.296875 
z
" id="DejaVuSans-70"/>
      <path d="M 8.5 21.578125 
L 8.5 54.6875 
L 17.484375 54.6875 
L 17.484375 21.921875 
Q 17.484375 14.15625 20.5 10.265625 
Q 23.53125 6.390625 29.59375 6.390625 
Q 36.859375 6.390625 41.078125 11.03125 
Q 45.3125 15.671875 45.3125 23.6875 
L 45.3125 54.6875 
L 54.296875 54.6875 
L 54.296875 0 
L 45.3125 0 
L 45.3125 8.40625 
Q 42.046875 3.421875 37.71875 1 
Q 33.40625 -1.421875 27.6875 -1.421875 
Q 18.265625 -1.421875 13.375 4.4375 
Q 8.5 10.296875 8.5 21.578125 
z
M 31.109375 56 
z
" id="DejaVuSans-75"/>
     </defs>
     <g transform="translate(260.209062 58.070437)scale(0.1 -0.1)">
      <use xlink:href="#DejaVuSans-30"/>
      <use x="63.623047" xlink:href="#DejaVuSans-30"/>
      <use x="127.246094" xlink:href="#DejaVuSans-31"/>
      <use x="190.869141" xlink:href="#DejaVuSans-69"/>
      <use x="218.652344" xlink:href="#DejaVuSans-6e"/>
      <use x="282.03125" xlink:href="#DejaVuSans-64"/>
      <use x="345.507812" xlink:href="#DejaVuSans-69"/>
      <use x="373.291016" xlink:href="#DejaVuSans-6e"/>
      <use x="436.669922" xlink:href="#DejaVuSans-76"/>
      <use x="495.818359" xlink:href="#DejaVuSans-2d"/>
      <use x="531.902344" xlink:href="#DejaVuSans-61"/>
      <use x="593.181641" xlink:href="#DejaVuSans-70"/>
      <use x="656.658203" xlink:href="#DejaVuSans-61"/>
      <use x="717.9375" xlink:href="#DejaVuSans-6c"/>
      <use x="745.720703" xlink:href="#DejaVuSans-61"/>
      <use x="807" xlink:href="#DejaVuSans-63"/>
      <use x="861.980469" xlink:href="#DejaVuSans-68"/>
      <use x="925.359375" xlink:href="#DejaVuSans-65"/>
      <use x="986.882812" xlink:href="#DejaVuSans-2d"/>
      <use x="1022.966797" xlink:href="#DejaVuSans-75"/>
      <use x="1086.345703" xlink:href="#DejaVuSans-6e"/>
      <use x="1149.724609" xlink:href="#DejaVuSans-73"/>
      <use x="1201.824219" xlink:href="#DejaVuSans-74"/>
      <use x="1241.033203" xlink:href="#DejaVuSans-61"/>
      <use x="1302.3125" xlink:href="#DejaVuSans-62"/>
      <use x="1365.789062" xlink:href="#DejaVuSans-6c"/>
      <use x="1393.572266" xlink:href="#DejaVuSans-65"/>
     </g>
    </g>
    <g id="line2d_58">
     <path d="M 232.209062 69.248562 
L 252.209062 69.248562 
" style="fill:none;opacity:0.7;stroke:#0000ff;stroke-linecap:square;stroke-width:1.5;"/>
    </g>
    <g id="line2d_59">
     <g>
      <use style="fill:#0000ff;opacity:0.7;stroke:#0000ff;" x="242.209062" xlink:href="#m7ccf6d2c0e" y="69.248562"/>
     </g>
    </g>
    <g id="text_15">
     <!-- 001indinv-apalache-card -->
     <g transform="translate(260.209062 72.748562)scale(0.1 -0.1)">
      <use xlink:href="#DejaVuSans-30"/>
      <use x="63.623047" xlink:href="#DejaVuSans-30"/>
      <use x="127.246094" xlink:href="#DejaVuSans-31"/>
      <use x="190.869141" xlink:href="#DejaVuSans-69"/>
      <use x="218.652344" xlink:href="#DejaVuSans-6e"/>
      <use x="282.03125" xlink:href="#DejaVuSans-64"/>
      <use x="345.507812" xlink:href="#DejaVuSans-69"/>
      <use x="373.291016" xlink:href="#DejaVuSans-6e"/>
      <use x="436.669922" xlink:href="#DejaVuSans-76"/>
      <use x="495.818359" xlink:href="#DejaVuSans-2d"/>
      <use x="531.902344" xlink:href="#DejaVuSans-61"/>
      <use x="593.181641" xlink:href="#DejaVuSans-70"/>
      <use x="656.658203" xlink:href="#DejaVuSans-61"/>
      <use x="717.9375" xlink:href="#DejaVuSans-6c"/>
      <use x="745.720703" xlink:href="#DejaVuSans-61"/>
      <use x="807" xlink:href="#DejaVuSans-63"/>
      <use x="861.980469" xlink:href="#DejaVuSans-68"/>
      <use x="925.359375" xlink:href="#DejaVuSans-65"/>
      <use x="986.882812" xlink:href="#DejaVuSans-2d"/>
      <use x="1022.966797" xlink:href="#DejaVuSans-63"/>
      <use x="1077.947266" xlink:href="#DejaVuSans-61"/>
      <use x="1139.226562" xlink:href="#DejaVuSans-72"/>
      <use x="1180.324219" xlink:href="#DejaVuSans-64"/>
     </g>
    </g>
   </g>
  </g>
 </g>
 <defs>
  <clipPath id="pfe63dfec0c">
   <rect height="266.112" width="357.12" x="57.6" y="41.472"/>
  </clipPath>
 </defs>
</svg>
