<?xml version="1.0" encoding="utf-8" standalone="no"?>
<!DOCTYPE svg PUBLIC "-//W3C//DTD SVG 1.1//EN"
  "http://www.w3.org/Graphics/SVG/1.1/DTD/svg11.dtd">
<!-- Created with matplotlib (http://matplotlib.org/) -->
<svg height="345pt" version="1.1" viewBox="0 0 460 345" width="460pt" xmlns="http://www.w3.org/2000/svg" xmlns:xlink="http://www.w3.org/1999/xlink">
 <defs>
  <style type="text/css">
*{stroke-linecap:butt;stroke-linejoin:round;}
  </style>
 </defs>
 <g id="figure_1">
  <g id="patch_1">
   <path d="M 0 345.6 
L 460.8 345.6 
L 460.8 0 
L 0 0 
z
" style="fill:#ffffff;"/>
  </g>
  <g id="axes_1">
   <g id="patch_2">
    <path d="M 57.6 307.584 
L 414.72 307.584 
L 414.72 41.472 
L 57.6 41.472 
z
" style="fill:#ffffff;"/>
   </g>
   <g id="matplotlib.axis_1">
    <g id="xtick_1">
     <g id="line2d_1">
      <path clip-path="url(#pa3bcd5702b)" d="M 62.637743 307.584 
L 62.637743 41.472 
" style="fill:none;opacity:0.2;stroke:#b0b0b0;stroke-linecap:square;stroke-width:0.8;"/>
     </g>
     <g id="line2d_2">
      <defs>
       <path d="M 0 0 
L 0 3.5 
" id="m3cf5ae2b6e" style="stroke:#000000;stroke-width:0.8;"/>
      </defs>
      <g>
       <use style="stroke:#000000;stroke-width:0.8;" x="62.637743" xlink:href="#m3cf5ae2b6e" y="307.584"/>
      </g>
     </g>
     <g id="text_1">
      <!-- 0 -->
      <defs>
       <path d="M 31.78125 66.40625 
Q 24.171875 66.40625 20.328125 58.90625 
Q 16.5 51.421875 16.5 36.375 
Q 16.5 21.390625 20.328125 13.890625 
Q 24.171875 6.390625 31.78125 6.390625 
Q 39.453125 6.390625 43.28125 13.890625 
Q 47.125 21.390625 47.125 36.375 
Q 47.125 51.421875 43.28125 58.90625 
Q 39.453125 66.40625 31.78125 66.40625 
z
M 31.78125 74.21875 
Q 44.046875 74.21875 50.515625 64.515625 
Q 56.984375 54.828125 56.984375 36.375 
Q 56.984375 17.96875 50.515625 8.265625 
Q 44.046875 -1.421875 31.78125 -1.421875 
Q 19.53125 -1.421875 13.0625 8.265625 
Q 6.59375 17.96875 6.59375 36.375 
Q 6.59375 54.828125 13.0625 64.515625 
Q 19.53125 74.21875 31.78125 74.21875 
z
" id="DejaVuSans-30"/>
      </defs>
      <g transform="translate(59.456493 322.182437)scale(0.1 -0.1)">
       <use xlink:href="#DejaVuSans-30"/>
      </g>
     </g>
    </g>
    <g id="xtick_2">
     <g id="line2d_3">
      <path clip-path="url(#pa3bcd5702b)" d="M 118.612665 307.584 
L 118.612665 41.472 
" style="fill:none;opacity:0.2;stroke:#b0b0b0;stroke-linecap:square;stroke-width:0.8;"/>
     </g>
     <g id="line2d_4">
      <g>
       <use style="stroke:#000000;stroke-width:0.8;" x="118.612665" xlink:href="#m3cf5ae2b6e" y="307.584"/>
      </g>
     </g>
     <g id="text_2">
      <!-- 5 -->
      <defs>
       <path d="M 10.796875 72.90625 
L 49.515625 72.90625 
L 49.515625 64.59375 
L 19.828125 64.59375 
L 19.828125 46.734375 
Q 21.96875 47.46875 24.109375 47.828125 
Q 26.265625 48.1875 28.421875 48.1875 
Q 40.625 48.1875 47.75 41.5 
Q 54.890625 34.8125 54.890625 23.390625 
Q 54.890625 11.625 47.5625 5.09375 
Q 40.234375 -1.421875 26.90625 -1.421875 
Q 22.3125 -1.421875 17.546875 -0.640625 
Q 12.796875 0.140625 7.71875 1.703125 
L 7.71875 11.625 
Q 12.109375 9.234375 16.796875 8.0625 
Q 21.484375 6.890625 26.703125 6.890625 
Q 35.15625 6.890625 40.078125 11.328125 
Q 45.015625 15.765625 45.015625 23.390625 
Q 45.015625 31 40.078125 35.4375 
Q 35.15625 39.890625 26.703125 39.890625 
Q 22.75 39.890625 18.8125 39.015625 
Q 14.890625 38.140625 10.796875 36.28125 
z
" id="DejaVuSans-35"/>
      </defs>
      <g transform="translate(115.431415 322.182437)scale(0.1 -0.1)">
       <use xlink:href="#DejaVuSans-35"/>
      </g>
     </g>
    </g>
    <g id="xtick_3">
     <g id="line2d_5">
      <path clip-path="url(#pa3bcd5702b)" d="M 174.587586 307.584 
L 174.587586 41.472 
" style="fill:none;opacity:0.2;stroke:#b0b0b0;stroke-linecap:square;stroke-width:0.8;"/>
     </g>
     <g id="line2d_6">
      <g>
       <use style="stroke:#000000;stroke-width:0.8;" x="174.587586" xlink:href="#m3cf5ae2b6e" y="307.584"/>
      </g>
     </g>
     <g id="text_3">
      <!-- 10 -->
      <defs>
       <path d="M 12.40625 8.296875 
L 28.515625 8.296875 
L 28.515625 63.921875 
L 10.984375 60.40625 
L 10.984375 69.390625 
L 28.421875 72.90625 
L 38.28125 72.90625 
L 38.28125 8.296875 
L 54.390625 8.296875 
L 54.390625 0 
L 12.40625 0 
z
" id="DejaVuSans-31"/>
      </defs>
      <g transform="translate(168.225086 322.182437)scale(0.1 -0.1)">
       <use xlink:href="#DejaVuSans-31"/>
       <use x="63.623047" xlink:href="#DejaVuSans-30"/>
      </g>
     </g>
    </g>
    <g id="xtick_4">
     <g id="line2d_7">
      <path clip-path="url(#pa3bcd5702b)" d="M 230.562508 307.584 
L 230.562508 41.472 
" style="fill:none;opacity:0.2;stroke:#b0b0b0;stroke-linecap:square;stroke-width:0.8;"/>
     </g>
     <g id="line2d_8">
      <g>
       <use style="stroke:#000000;stroke-width:0.8;" x="230.562508" xlink:href="#m3cf5ae2b6e" y="307.584"/>
      </g>
     </g>
     <g id="text_4">
      <!-- 15 -->
      <g transform="translate(224.200008 322.182437)scale(0.1 -0.1)">
       <use xlink:href="#DejaVuSans-31"/>
       <use x="63.623047" xlink:href="#DejaVuSans-35"/>
      </g>
     </g>
    </g>
    <g id="xtick_5">
     <g id="line2d_9">
      <path clip-path="url(#pa3bcd5702b)" d="M 286.537429 307.584 
L 286.537429 41.472 
" style="fill:none;opacity:0.2;stroke:#b0b0b0;stroke-linecap:square;stroke-width:0.8;"/>
     </g>
     <g id="line2d_10">
      <g>
       <use style="stroke:#000000;stroke-width:0.8;" x="286.537429" xlink:href="#m3cf5ae2b6e" y="307.584"/>
      </g>
     </g>
     <g id="text_5">
      <!-- 20 -->
      <defs>
       <path d="M 19.1875 8.296875 
L 53.609375 8.296875 
L 53.609375 0 
L 7.328125 0 
L 7.328125 8.296875 
Q 12.9375 14.109375 22.625 23.890625 
Q 32.328125 33.6875 34.8125 36.53125 
Q 39.546875 41.84375 41.421875 45.53125 
Q 43.3125 49.21875 43.3125 52.78125 
Q 43.3125 58.59375 39.234375 62.25 
Q 35.15625 65.921875 28.609375 65.921875 
Q 23.96875 65.921875 18.8125 64.3125 
Q 13.671875 62.703125 7.8125 59.421875 
L 7.8125 69.390625 
Q 13.765625 71.78125 18.9375 73 
Q 24.125 74.21875 28.421875 74.21875 
Q 39.75 74.21875 46.484375 68.546875 
Q 53.21875 62.890625 53.21875 53.421875 
Q 53.21875 48.921875 51.53125 44.890625 
Q 49.859375 40.875 45.40625 35.40625 
Q 44.1875 33.984375 37.640625 27.21875 
Q 31.109375 20.453125 19.1875 8.296875 
z
" id="DejaVuSans-32"/>
      </defs>
      <g transform="translate(280.174929 322.182437)scale(0.1 -0.1)">
       <use xlink:href="#DejaVuSans-32"/>
       <use x="63.623047" xlink:href="#DejaVuSans-30"/>
      </g>
     </g>
    </g>
    <g id="xtick_6">
     <g id="line2d_11">
      <path clip-path="url(#pa3bcd5702b)" d="M 342.512351 307.584 
L 342.512351 41.472 
" style="fill:none;opacity:0.2;stroke:#b0b0b0;stroke-linecap:square;stroke-width:0.8;"/>
     </g>
     <g id="line2d_12">
      <g>
       <use style="stroke:#000000;stroke-width:0.8;" x="342.512351" xlink:href="#m3cf5ae2b6e" y="307.584"/>
      </g>
     </g>
     <g id="text_6">
      <!-- 25 -->
      <g transform="translate(336.149851 322.182437)scale(0.1 -0.1)">
       <use xlink:href="#DejaVuSans-32"/>
       <use x="63.623047" xlink:href="#DejaVuSans-35"/>
      </g>
     </g>
    </g>
    <g id="xtick_7">
     <g id="line2d_13">
      <path clip-path="url(#pa3bcd5702b)" d="M 398.487273 307.584 
L 398.487273 41.472 
" style="fill:none;opacity:0.2;stroke:#b0b0b0;stroke-linecap:square;stroke-width:0.8;"/>
     </g>
     <g id="line2d_14">
      <g>
       <use style="stroke:#000000;stroke-width:0.8;" x="398.487273" xlink:href="#m3cf5ae2b6e" y="307.584"/>
      </g>
     </g>
     <g id="text_7">
      <!-- 30 -->
      <defs>
       <path d="M 40.578125 39.3125 
Q 47.65625 37.796875 51.625 33 
Q 55.609375 28.21875 55.609375 21.1875 
Q 55.609375 10.40625 48.1875 4.484375 
Q 40.765625 -1.421875 27.09375 -1.421875 
Q 22.515625 -1.421875 17.65625 -0.515625 
Q 12.796875 0.390625 7.625 2.203125 
L 7.625 11.71875 
Q 11.71875 9.328125 16.59375 8.109375 
Q 21.484375 6.890625 26.8125 6.890625 
Q 36.078125 6.890625 40.9375 10.546875 
Q 45.796875 14.203125 45.796875 21.1875 
Q 45.796875 27.640625 41.28125 31.265625 
Q 36.765625 34.90625 28.71875 34.90625 
L 20.21875 34.90625 
L 20.21875 43.015625 
L 29.109375 43.015625 
Q 36.375 43.015625 40.234375 45.921875 
Q 44.09375 48.828125 44.09375 54.296875 
Q 44.09375 59.90625 40.109375 62.90625 
Q 36.140625 65.921875 28.71875 65.921875 
Q 24.65625 65.921875 20.015625 65.03125 
Q 15.375 64.15625 9.8125 62.3125 
L 9.8125 71.09375 
Q 15.4375 72.65625 20.34375 73.4375 
Q 25.25 74.21875 29.59375 74.21875 
Q 40.828125 74.21875 47.359375 69.109375 
Q 53.90625 64.015625 53.90625 55.328125 
Q 53.90625 49.265625 50.4375 45.09375 
Q 46.96875 40.921875 40.578125 39.3125 
z
" id="DejaVuSans-33"/>
      </defs>
      <g transform="translate(392.124773 322.182437)scale(0.1 -0.1)">
       <use xlink:href="#DejaVuSans-33"/>
       <use x="63.623047" xlink:href="#DejaVuSans-30"/>
      </g>
     </g>
    </g>
    <g id="text_8">
     <!-- benchmark -->
     <defs>
      <path d="M 48.6875 27.296875 
Q 48.6875 37.203125 44.609375 42.84375 
Q 40.53125 48.484375 33.40625 48.484375 
Q 26.265625 48.484375 22.1875 42.84375 
Q 18.109375 37.203125 18.109375 27.296875 
Q 18.109375 17.390625 22.1875 11.75 
Q 26.265625 6.109375 33.40625 6.109375 
Q 40.53125 6.109375 44.609375 11.75 
Q 48.6875 17.390625 48.6875 27.296875 
z
M 18.109375 46.390625 
Q 20.953125 51.265625 25.265625 53.625 
Q 29.59375 56 35.59375 56 
Q 45.5625 56 51.78125 48.09375 
Q 58.015625 40.1875 58.015625 27.296875 
Q 58.015625 14.40625 51.78125 6.484375 
Q 45.5625 -1.421875 35.59375 -1.421875 
Q 29.59375 -1.421875 25.265625 0.953125 
Q 20.953125 3.328125 18.109375 8.203125 
L 18.109375 0 
L 9.078125 0 
L 9.078125 75.984375 
L 18.109375 75.984375 
z
" id="DejaVuSans-62"/>
      <path d="M 56.203125 29.59375 
L 56.203125 25.203125 
L 14.890625 25.203125 
Q 15.484375 15.921875 20.484375 11.0625 
Q 25.484375 6.203125 34.421875 6.203125 
Q 39.59375 6.203125 44.453125 7.46875 
Q 49.3125 8.734375 54.109375 11.28125 
L 54.109375 2.78125 
Q 49.265625 0.734375 44.1875 -0.34375 
Q 39.109375 -1.421875 33.890625 -1.421875 
Q 20.796875 -1.421875 13.15625 6.1875 
Q 5.515625 13.8125 5.515625 26.8125 
Q 5.515625 40.234375 12.765625 48.109375 
Q 20.015625 56 32.328125 56 
Q 43.359375 56 49.78125 48.890625 
Q 56.203125 41.796875 56.203125 29.59375 
z
M 47.21875 32.234375 
Q 47.125 39.59375 43.09375 43.984375 
Q 39.0625 48.390625 32.421875 48.390625 
Q 24.90625 48.390625 20.390625 44.140625 
Q 15.875 39.890625 15.1875 32.171875 
z
" id="DejaVuSans-65"/>
      <path d="M 54.890625 33.015625 
L 54.890625 0 
L 45.90625 0 
L 45.90625 32.71875 
Q 45.90625 40.484375 42.875 44.328125 
Q 39.84375 48.1875 33.796875 48.1875 
Q 26.515625 48.1875 22.3125 43.546875 
Q 18.109375 38.921875 18.109375 30.90625 
L 18.109375 0 
L 9.078125 0 
L 9.078125 54.6875 
L 18.109375 54.6875 
L 18.109375 46.1875 
Q 21.34375 51.125 25.703125 53.5625 
Q 30.078125 56 35.796875 56 
Q 45.21875 56 50.046875 50.171875 
Q 54.890625 44.34375 54.890625 33.015625 
z
" id="DejaVuSans-6e"/>
      <path d="M 48.78125 52.59375 
L 48.78125 44.1875 
Q 44.96875 46.296875 41.140625 47.34375 
Q 37.3125 48.390625 33.40625 48.390625 
Q 24.65625 48.390625 19.8125 42.84375 
Q 14.984375 37.3125 14.984375 27.296875 
Q 14.984375 17.28125 19.8125 11.734375 
Q 24.65625 6.203125 33.40625 6.203125 
Q 37.3125 6.203125 41.140625 7.25 
Q 44.96875 8.296875 48.78125 10.40625 
L 48.78125 2.09375 
Q 45.015625 0.34375 40.984375 -0.53125 
Q 36.96875 -1.421875 32.421875 -1.421875 
Q 20.0625 -1.421875 12.78125 6.34375 
Q 5.515625 14.109375 5.515625 27.296875 
Q 5.515625 40.671875 12.859375 48.328125 
Q 20.21875 56 33.015625 56 
Q 37.15625 56 41.109375 55.140625 
Q 45.0625 54.296875 48.78125 52.59375 
z
" id="DejaVuSans-63"/>
      <path d="M 54.890625 33.015625 
L 54.890625 0 
L 45.90625 0 
L 45.90625 32.71875 
Q 45.90625 40.484375 42.875 44.328125 
Q 39.84375 48.1875 33.796875 48.1875 
Q 26.515625 48.1875 22.3125 43.546875 
Q 18.109375 38.921875 18.109375 30.90625 
L 18.109375 0 
L 9.078125 0 
L 9.078125 75.984375 
L 18.109375 75.984375 
L 18.109375 46.1875 
Q 21.34375 51.125 25.703125 53.5625 
Q 30.078125 56 35.796875 56 
Q 45.21875 56 50.046875 50.171875 
Q 54.890625 44.34375 54.890625 33.015625 
z
" id="DejaVuSans-68"/>
      <path d="M 52 44.1875 
Q 55.375 50.25 60.0625 53.125 
Q 64.75 56 71.09375 56 
Q 79.640625 56 84.28125 50.015625 
Q 88.921875 44.046875 88.921875 33.015625 
L 88.921875 0 
L 79.890625 0 
L 79.890625 32.71875 
Q 79.890625 40.578125 77.09375 44.375 
Q 74.3125 48.1875 68.609375 48.1875 
Q 61.625 48.1875 57.5625 43.546875 
Q 53.515625 38.921875 53.515625 30.90625 
L 53.515625 0 
L 44.484375 0 
L 44.484375 32.71875 
Q 44.484375 40.625 41.703125 44.40625 
Q 38.921875 48.1875 33.109375 48.1875 
Q 26.21875 48.1875 22.15625 43.53125 
Q 18.109375 38.875 18.109375 30.90625 
L 18.109375 0 
L 9.078125 0 
L 9.078125 54.6875 
L 18.109375 54.6875 
L 18.109375 46.1875 
Q 21.1875 51.21875 25.484375 53.609375 
Q 29.78125 56 35.6875 56 
Q 41.65625 56 45.828125 52.96875 
Q 50 49.953125 52 44.1875 
z
" id="DejaVuSans-6d"/>
      <path d="M 34.28125 27.484375 
Q 23.390625 27.484375 19.1875 25 
Q 14.984375 22.515625 14.984375 16.5 
Q 14.984375 11.71875 18.140625 8.90625 
Q 21.296875 6.109375 26.703125 6.109375 
Q 34.1875 6.109375 38.703125 11.40625 
Q 43.21875 16.703125 43.21875 25.484375 
L 43.21875 27.484375 
z
M 52.203125 31.203125 
L 52.203125 0 
L 43.21875 0 
L 43.21875 8.296875 
Q 40.140625 3.328125 35.546875 0.953125 
Q 30.953125 -1.421875 24.3125 -1.421875 
Q 15.921875 -1.421875 10.953125 3.296875 
Q 6 8.015625 6 15.921875 
Q 6 25.140625 12.171875 29.828125 
Q 18.359375 34.515625 30.609375 34.515625 
L 43.21875 34.515625 
L 43.21875 35.40625 
Q 43.21875 41.609375 39.140625 45 
Q 35.0625 48.390625 27.6875 48.390625 
Q 23 48.390625 18.546875 47.265625 
Q 14.109375 46.140625 10.015625 43.890625 
L 10.015625 52.203125 
Q 14.9375 54.109375 19.578125 55.046875 
Q 24.21875 56 28.609375 56 
Q 40.484375 56 46.34375 49.84375 
Q 52.203125 43.703125 52.203125 31.203125 
z
" id="DejaVuSans-61"/>
      <path d="M 41.109375 46.296875 
Q 39.59375 47.171875 37.8125 47.578125 
Q 36.03125 48 33.890625 48 
Q 26.265625 48 22.1875 43.046875 
Q 18.109375 38.09375 18.109375 28.8125 
L 18.109375 0 
L 9.078125 0 
L 9.078125 54.6875 
L 18.109375 54.6875 
L 18.109375 46.1875 
Q 20.953125 51.171875 25.484375 53.578125 
Q 30.03125 56 36.53125 56 
Q 37.453125 56 38.578125 55.875 
Q 39.703125 55.765625 41.0625 55.515625 
z
" id="DejaVuSans-72"/>
      <path d="M 9.078125 75.984375 
L 18.109375 75.984375 
L 18.109375 31.109375 
L 44.921875 54.6875 
L 56.390625 54.6875 
L 27.390625 29.109375 
L 57.625 0 
L 45.90625 0 
L 18.109375 26.703125 
L 18.109375 0 
L 9.078125 0 
z
" id="DejaVuSans-6b"/>
     </defs>
     <g transform="translate(207.937344 335.860562)scale(0.1 -0.1)">
      <use xlink:href="#DejaVuSans-62"/>
      <use x="63.476562" xlink:href="#DejaVuSans-65"/>
      <use x="125" xlink:href="#DejaVuSans-6e"/>
      <use x="188.378906" xlink:href="#DejaVuSans-63"/>
      <use x="243.359375" xlink:href="#DejaVuSans-68"/>
      <use x="306.738281" xlink:href="#DejaVuSans-6d"/>
      <use x="404.150391" xlink:href="#DejaVuSans-61"/>
      <use x="465.429688" xlink:href="#DejaVuSans-72"/>
      <use x="506.542969" xlink:href="#DejaVuSans-6b"/>
     </g>
    </g>
   </g>
   <g id="matplotlib.axis_2">
    <g id="ytick_1">
     <g id="line2d_15">
      <path clip-path="url(#pa3bcd5702b)" d="M 57.6 263.798493 
L 414.72 263.798493 
" style="fill:none;opacity:0.2;stroke:#b0b0b0;stroke-linecap:square;stroke-width:0.8;"/>
     </g>
     <g id="line2d_16">
      <defs>
       <path d="M 0 0 
L -3.5 0 
" id="mc596d7e99e" style="stroke:#000000;stroke-width:0.8;"/>
      </defs>
      <g>
       <use style="stroke:#000000;stroke-width:0.8;" x="57.6" xlink:href="#mc596d7e99e" y="263.798493"/>
      </g>
     </g>
     <g id="text_9">
      <!-- $\mathdefault{10^{6}}$ -->
      <defs>
       <path d="M 33.015625 40.375 
Q 26.375 40.375 22.484375 35.828125 
Q 18.609375 31.296875 18.609375 23.390625 
Q 18.609375 15.53125 22.484375 10.953125 
Q 26.375 6.390625 33.015625 6.390625 
Q 39.65625 6.390625 43.53125 10.953125 
Q 47.40625 15.53125 47.40625 23.390625 
Q 47.40625 31.296875 43.53125 35.828125 
Q 39.65625 40.375 33.015625 40.375 
z
M 52.59375 71.296875 
L 52.59375 62.3125 
Q 48.875 64.0625 45.09375 64.984375 
Q 41.3125 65.921875 37.59375 65.921875 
Q 27.828125 65.921875 22.671875 59.328125 
Q 17.53125 52.734375 16.796875 39.40625 
Q 19.671875 43.65625 24.015625 45.921875 
Q 28.375 48.1875 33.59375 48.1875 
Q 44.578125 48.1875 50.953125 41.515625 
Q 57.328125 34.859375 57.328125 23.390625 
Q 57.328125 12.15625 50.6875 5.359375 
Q 44.046875 -1.421875 33.015625 -1.421875 
Q 20.359375 -1.421875 13.671875 8.265625 
Q 6.984375 17.96875 6.984375 36.375 
Q 6.984375 53.65625 15.1875 63.9375 
Q 23.390625 74.21875 37.203125 74.21875 
Q 40.921875 74.21875 44.703125 73.484375 
Q 48.484375 72.75 52.59375 71.296875 
z
" id="DejaVuSans-36"/>
      </defs>
      <g transform="translate(33 267.597712)scale(0.1 -0.1)">
       <use transform="translate(0 0.765625)" xlink:href="#DejaVuSans-31"/>
       <use transform="translate(63.623047 0.765625)" xlink:href="#DejaVuSans-30"/>
       <use transform="translate(128.203125 39.046875)scale(0.7)" xlink:href="#DejaVuSans-36"/>
      </g>
     </g>
    </g>
    <g id="ytick_2">
     <g id="line2d_17">
      <path clip-path="url(#pa3bcd5702b)" d="M 57.6 123.443391 
L 414.72 123.443391 
" style="fill:none;opacity:0.2;stroke:#b0b0b0;stroke-linecap:square;stroke-width:0.8;"/>
     </g>
     <g id="line2d_18">
      <g>
       <use style="stroke:#000000;stroke-width:0.8;" x="57.6" xlink:href="#mc596d7e99e" y="123.443391"/>
      </g>
     </g>
     <g id="text_10">
      <!-- $\mathdefault{10^{7}}$ -->
      <defs>
       <path d="M 8.203125 72.90625 
L 55.078125 72.90625 
L 55.078125 68.703125 
L 28.609375 0 
L 18.3125 0 
L 43.21875 64.59375 
L 8.203125 64.59375 
z
" id="DejaVuSans-37"/>
      </defs>
      <g transform="translate(33 127.242609)scale(0.1 -0.1)">
       <use transform="translate(0 0.684375)" xlink:href="#DejaVuSans-31"/>
       <use transform="translate(63.623047 0.684375)" xlink:href="#DejaVuSans-30"/>
       <use transform="translate(128.203125 38.965625)scale(0.7)" xlink:href="#DejaVuSans-37"/>
      </g>
     </g>
    </g>
    <g id="ytick_3">
     <g id="line2d_19">
      <defs>
       <path d="M 0 0 
L -2 0 
" id="m8894847c4b" style="stroke:#000000;stroke-width:0.6;"/>
      </defs>
      <g>
       <use style="stroke:#000000;stroke-width:0.6;" x="57.6" xlink:href="#m8894847c4b" y="306.049589"/>
      </g>
     </g>
    </g>
    <g id="ytick_4">
     <g id="line2d_20">
      <g>
       <use style="stroke:#000000;stroke-width:0.6;" x="57.6" xlink:href="#m8894847c4b" y="294.936097"/>
      </g>
     </g>
    </g>
    <g id="ytick_5">
     <g id="line2d_21">
      <g>
       <use style="stroke:#000000;stroke-width:0.6;" x="57.6" xlink:href="#m8894847c4b" y="285.539774"/>
      </g>
     </g>
    </g>
    <g id="ytick_6">
     <g id="line2d_22">
      <g>
       <use style="stroke:#000000;stroke-width:0.6;" x="57.6" xlink:href="#m8894847c4b" y="277.400308"/>
      </g>
     </g>
    </g>
    <g id="ytick_7">
     <g id="line2d_23">
      <g>
       <use style="stroke:#000000;stroke-width:0.6;" x="57.6" xlink:href="#m8894847c4b" y="270.220791"/>
      </g>
     </g>
    </g>
    <g id="ytick_8">
     <g id="line2d_24">
      <g>
       <use style="stroke:#000000;stroke-width:0.6;" x="57.6" xlink:href="#m8894847c4b" y="221.547397"/>
      </g>
     </g>
    </g>
    <g id="ytick_9">
     <g id="line2d_25">
      <g>
       <use style="stroke:#000000;stroke-width:0.6;" x="57.6" xlink:href="#m8894847c4b" y="196.832091"/>
      </g>
     </g>
    </g>
    <g id="ytick_10">
     <g id="line2d_26">
      <g>
       <use style="stroke:#000000;stroke-width:0.6;" x="57.6" xlink:href="#m8894847c4b" y="179.296301"/>
      </g>
     </g>
    </g>
    <g id="ytick_11">
     <g id="line2d_27">
      <g>
       <use style="stroke:#000000;stroke-width:0.6;" x="57.6" xlink:href="#m8894847c4b" y="165.694487"/>
      </g>
     </g>
    </g>
    <g id="ytick_12">
     <g id="line2d_28">
      <g>
       <use style="stroke:#000000;stroke-width:0.6;" x="57.6" xlink:href="#m8894847c4b" y="154.580995"/>
      </g>
     </g>
    </g>
    <g id="ytick_13">
     <g id="line2d_29">
      <g>
       <use style="stroke:#000000;stroke-width:0.6;" x="57.6" xlink:href="#m8894847c4b" y="145.184671"/>
      </g>
     </g>
    </g>
    <g id="ytick_14">
     <g id="line2d_30">
      <g>
       <use style="stroke:#000000;stroke-width:0.6;" x="57.6" xlink:href="#m8894847c4b" y="137.045205"/>
      </g>
     </g>
    </g>
    <g id="ytick_15">
     <g id="line2d_31">
      <g>
       <use style="stroke:#000000;stroke-width:0.6;" x="57.6" xlink:href="#m8894847c4b" y="129.865688"/>
      </g>
     </g>
    </g>
    <g id="ytick_16">
     <g id="line2d_32">
      <g>
       <use style="stroke:#000000;stroke-width:0.6;" x="57.6" xlink:href="#m8894847c4b" y="81.192295"/>
      </g>
     </g>
    </g>
    <g id="ytick_17">
     <g id="line2d_33">
      <g>
       <use style="stroke:#000000;stroke-width:0.6;" x="57.6" xlink:href="#m8894847c4b" y="56.476988"/>
      </g>
     </g>
    </g>
    <g id="text_11">
     <!-- memory, KB, logscale -->
     <defs>
      <path d="M 30.609375 48.390625 
Q 23.390625 48.390625 19.1875 42.75 
Q 14.984375 37.109375 14.984375 27.296875 
Q 14.984375 17.484375 19.15625 11.84375 
Q 23.34375 6.203125 30.609375 6.203125 
Q 37.796875 6.203125 41.984375 11.859375 
Q 46.1875 17.53125 46.1875 27.296875 
Q 46.1875 37.015625 41.984375 42.703125 
Q 37.796875 48.390625 30.609375 48.390625 
z
M 30.609375 56 
Q 42.328125 56 49.015625 48.375 
Q 55.71875 40.765625 55.71875 27.296875 
Q 55.71875 13.875 49.015625 6.21875 
Q 42.328125 -1.421875 30.609375 -1.421875 
Q 18.84375 -1.421875 12.171875 6.21875 
Q 5.515625 13.875 5.515625 27.296875 
Q 5.515625 40.765625 12.171875 48.375 
Q 18.84375 56 30.609375 56 
z
" id="DejaVuSans-6f"/>
      <path d="M 32.171875 -5.078125 
Q 28.375 -14.84375 24.75 -17.8125 
Q 21.140625 -20.796875 15.09375 -20.796875 
L 7.90625 -20.796875 
L 7.90625 -13.28125 
L 13.1875 -13.28125 
Q 16.890625 -13.28125 18.9375 -11.515625 
Q 21 -9.765625 23.484375 -3.21875 
L 25.09375 0.875 
L 2.984375 54.6875 
L 12.5 54.6875 
L 29.59375 11.921875 
L 46.6875 54.6875 
L 56.203125 54.6875 
z
" id="DejaVuSans-79"/>
      <path d="M 11.71875 12.40625 
L 22.015625 12.40625 
L 22.015625 4 
L 14.015625 -11.625 
L 7.71875 -11.625 
L 11.71875 4 
z
" id="DejaVuSans-2c"/>
      <path id="DejaVuSans-20"/>
      <path d="M 9.8125 72.90625 
L 19.671875 72.90625 
L 19.671875 42.09375 
L 52.390625 72.90625 
L 65.09375 72.90625 
L 28.90625 38.921875 
L 67.671875 0 
L 54.6875 0 
L 19.671875 35.109375 
L 19.671875 0 
L 9.8125 0 
z
" id="DejaVuSans-4b"/>
      <path d="M 19.671875 34.8125 
L 19.671875 8.109375 
L 35.5 8.109375 
Q 43.453125 8.109375 47.28125 11.40625 
Q 51.125 14.703125 51.125 21.484375 
Q 51.125 28.328125 47.28125 31.5625 
Q 43.453125 34.8125 35.5 34.8125 
z
M 19.671875 64.796875 
L 19.671875 42.828125 
L 34.28125 42.828125 
Q 41.5 42.828125 45.03125 45.53125 
Q 48.578125 48.25 48.578125 53.8125 
Q 48.578125 59.328125 45.03125 62.0625 
Q 41.5 64.796875 34.28125 64.796875 
z
M 9.8125 72.90625 
L 35.015625 72.90625 
Q 46.296875 72.90625 52.390625 68.21875 
Q 58.5 63.53125 58.5 54.890625 
Q 58.5 48.1875 55.375 44.234375 
Q 52.25 40.28125 46.1875 39.3125 
Q 53.46875 37.75 57.5 32.78125 
Q 61.53125 27.828125 61.53125 20.40625 
Q 61.53125 10.640625 54.890625 5.3125 
Q 48.25 0 35.984375 0 
L 9.8125 0 
z
" id="DejaVuSans-42"/>
      <path d="M 9.421875 75.984375 
L 18.40625 75.984375 
L 18.40625 0 
L 9.421875 0 
z
" id="DejaVuSans-6c"/>
      <path d="M 45.40625 27.984375 
Q 45.40625 37.75 41.375 43.109375 
Q 37.359375 48.484375 30.078125 48.484375 
Q 22.859375 48.484375 18.828125 43.109375 
Q 14.796875 37.75 14.796875 27.984375 
Q 14.796875 18.265625 18.828125 12.890625 
Q 22.859375 7.515625 30.078125 7.515625 
Q 37.359375 7.515625 41.375 12.890625 
Q 45.40625 18.265625 45.40625 27.984375 
z
M 54.390625 6.78125 
Q 54.390625 -7.171875 48.1875 -13.984375 
Q 42 -20.796875 29.203125 -20.796875 
Q 24.46875 -20.796875 20.265625 -20.09375 
Q 16.0625 -19.390625 12.109375 -17.921875 
L 12.109375 -9.1875 
Q 16.0625 -11.328125 19.921875 -12.34375 
Q 23.78125 -13.375 27.78125 -13.375 
Q 36.625 -13.375 41.015625 -8.765625 
Q 45.40625 -4.15625 45.40625 5.171875 
L 45.40625 9.625 
Q 42.625 4.78125 38.28125 2.390625 
Q 33.9375 0 27.875 0 
Q 17.828125 0 11.671875 7.65625 
Q 5.515625 15.328125 5.515625 27.984375 
Q 5.515625 40.671875 11.671875 48.328125 
Q 17.828125 56 27.875 56 
Q 33.9375 56 38.28125 53.609375 
Q 42.625 51.21875 45.40625 46.390625 
L 45.40625 54.6875 
L 54.390625 54.6875 
z
" id="DejaVuSans-67"/>
      <path d="M 44.28125 53.078125 
L 44.28125 44.578125 
Q 40.484375 46.53125 36.375 47.5 
Q 32.28125 48.484375 27.875 48.484375 
Q 21.1875 48.484375 17.84375 46.4375 
Q 14.5 44.390625 14.5 40.28125 
Q 14.5 37.15625 16.890625 35.375 
Q 19.28125 33.59375 26.515625 31.984375 
L 29.59375 31.296875 
Q 39.15625 29.25 43.1875 25.515625 
Q 47.21875 21.78125 47.21875 15.09375 
Q 47.21875 7.46875 41.1875 3.015625 
Q 35.15625 -1.421875 24.609375 -1.421875 
Q 20.21875 -1.421875 15.453125 -0.5625 
Q 10.6875 0.296875 5.421875 2 
L 5.421875 11.28125 
Q 10.40625 8.6875 15.234375 7.390625 
Q 20.0625 6.109375 24.8125 6.109375 
Q 31.15625 6.109375 34.5625 8.28125 
Q 37.984375 10.453125 37.984375 14.40625 
Q 37.984375 18.0625 35.515625 20.015625 
Q 33.0625 21.96875 24.703125 23.78125 
L 21.578125 24.515625 
Q 13.234375 26.265625 9.515625 29.90625 
Q 5.8125 33.546875 5.8125 39.890625 
Q 5.8125 47.609375 11.28125 51.796875 
Q 16.75 56 26.8125 56 
Q 31.78125 56 36.171875 55.265625 
Q 40.578125 54.546875 44.28125 53.078125 
z
" id="DejaVuSans-73"/>
     </defs>
     <g transform="translate(26.920312 228.991281)rotate(-90)scale(0.1 -0.1)">
      <use xlink:href="#DejaVuSans-6d"/>
      <use x="97.412109" xlink:href="#DejaVuSans-65"/>
      <use x="158.935547" xlink:href="#DejaVuSans-6d"/>
      <use x="256.347656" xlink:href="#DejaVuSans-6f"/>
      <use x="317.529297" xlink:href="#DejaVuSans-72"/>
      <use x="358.642578" xlink:href="#DejaVuSans-79"/>
      <use x="417.822266" xlink:href="#DejaVuSans-2c"/>
      <use x="449.609375" xlink:href="#DejaVuSans-20"/>
      <use x="481.396484" xlink:href="#DejaVuSans-4b"/>
      <use x="546.972656" xlink:href="#DejaVuSans-42"/>
      <use x="615.576172" xlink:href="#DejaVuSans-2c"/>
      <use x="647.363281" xlink:href="#DejaVuSans-20"/>
      <use x="679.150391" xlink:href="#DejaVuSans-6c"/>
      <use x="706.933594" xlink:href="#DejaVuSans-6f"/>
      <use x="768.115234" xlink:href="#DejaVuSans-67"/>
      <use x="831.591797" xlink:href="#DejaVuSans-73"/>
      <use x="883.691406" xlink:href="#DejaVuSans-63"/>
      <use x="938.671875" xlink:href="#DejaVuSans-61"/>
      <use x="999.951172" xlink:href="#DejaVuSans-6c"/>
      <use x="1027.734375" xlink:href="#DejaVuSans-65"/>
     </g>
    </g>
   </g>
   <g id="line2d_34">
    <path clip-path="url(#pa3bcd5702b)" d="M 73.832727 133.364923 
L 85.027712 131.319264 
L 96.222696 134.916545 
L 107.41768 109.609218 
L 118.612665 109.979833 
L 129.807649 97.042686 
L 141.002633 95.939924 
L 152.197618 98.526987 
L 163.392602 76.272686 
L 174.587586 76.865027 
L 185.782571 159.423302 
L 196.977555 85.554307 
L 208.172539 70.248444 
L 219.367524 135.343147 
L 230.562508 72.919142 
L 241.757492 101.028007 
L 252.952476 58.58131 
L 264.147461 58.905155 
L 275.342445 80.768667 
L 286.537429 53.568 
L 297.732414 294.637741 
L 308.927398 274.711406 
L 320.122382 266.314506 
L 331.317367 277.758251 
L 342.512351 275.408571 
L 353.707335 263.8241 
L 364.90232 256.185327 
L 376.097304 246.885302 
L 387.292288 246.210305 
L 398.487273 236.093372 
" style="fill:none;opacity:0.7;stroke:#ff0000;stroke-linecap:square;stroke-width:1.5;"/>
    <defs>
     <path d="M -3 3 
L 3 3 
L 3 -3 
L -3 -3 
z
" id="m891411d55d" style="stroke:#ff0000;stroke-linejoin:miter;"/>
    </defs>
    <g clip-path="url(#pa3bcd5702b)">
     <use style="fill:#ff0000;opacity:0.7;stroke:#ff0000;stroke-linejoin:miter;" x="73.832727" xlink:href="#m891411d55d" y="133.364923"/>
     <use style="fill:#ff0000;opacity:0.7;stroke:#ff0000;stroke-linejoin:miter;" x="85.027712" xlink:href="#m891411d55d" y="131.319264"/>
     <use style="fill:#ff0000;opacity:0.7;stroke:#ff0000;stroke-linejoin:miter;" x="96.222696" xlink:href="#m891411d55d" y="134.916545"/>
     <use style="fill:#ff0000;opacity:0.7;stroke:#ff0000;stroke-linejoin:miter;" x="107.41768" xlink:href="#m891411d55d" y="109.609218"/>
     <use style="fill:#ff0000;opacity:0.7;stroke:#ff0000;stroke-linejoin:miter;" x="118.612665" xlink:href="#m891411d55d" y="109.979833"/>
     <use style="fill:#ff0000;opacity:0.7;stroke:#ff0000;stroke-linejoin:miter;" x="129.807649" xlink:href="#m891411d55d" y="97.042686"/>
     <use style="fill:#ff0000;opacity:0.7;stroke:#ff0000;stroke-linejoin:miter;" x="141.002633" xlink:href="#m891411d55d" y="95.939924"/>
     <use style="fill:#ff0000;opacity:0.7;stroke:#ff0000;stroke-linejoin:miter;" x="152.197618" xlink:href="#m891411d55d" y="98.526987"/>
     <use style="fill:#ff0000;opacity:0.7;stroke:#ff0000;stroke-linejoin:miter;" x="163.392602" xlink:href="#m891411d55d" y="76.272686"/>
     <use style="fill:#ff0000;opacity:0.7;stroke:#ff0000;stroke-linejoin:miter;" x="174.587586" xlink:href="#m891411d55d" y="76.865027"/>
     <use style="fill:#ff0000;opacity:0.7;stroke:#ff0000;stroke-linejoin:miter;" x="185.782571" xlink:href="#m891411d55d" y="159.423302"/>
     <use style="fill:#ff0000;opacity:0.7;stroke:#ff0000;stroke-linejoin:miter;" x="196.977555" xlink:href="#m891411d55d" y="85.554307"/>
     <use style="fill:#ff0000;opacity:0.7;stroke:#ff0000;stroke-linejoin:miter;" x="208.172539" xlink:href="#m891411d55d" y="70.248444"/>
     <use style="fill:#ff0000;opacity:0.7;stroke:#ff0000;stroke-linejoin:miter;" x="219.367524" xlink:href="#m891411d55d" y="135.343147"/>
     <use style="fill:#ff0000;opacity:0.7;stroke:#ff0000;stroke-linejoin:miter;" x="230.562508" xlink:href="#m891411d55d" y="72.919142"/>
     <use style="fill:#ff0000;opacity:0.7;stroke:#ff0000;stroke-linejoin:miter;" x="241.757492" xlink:href="#m891411d55d" y="101.028007"/>
     <use style="fill:#ff0000;opacity:0.7;stroke:#ff0000;stroke-linejoin:miter;" x="252.952476" xlink:href="#m891411d55d" y="58.58131"/>
     <use style="fill:#ff0000;opacity:0.7;stroke:#ff0000;stroke-linejoin:miter;" x="264.147461" xlink:href="#m891411d55d" y="58.905155"/>
     <use style="fill:#ff0000;opacity:0.7;stroke:#ff0000;stroke-linejoin:miter;" x="275.342445" xlink:href="#m891411d55d" y="80.768667"/>
     <use style="fill:#ff0000;opacity:0.7;stroke:#ff0000;stroke-linejoin:miter;" x="286.537429" xlink:href="#m891411d55d" y="53.568"/>
     <use style="fill:#ff0000;opacity:0.7;stroke:#ff0000;stroke-linejoin:miter;" x="297.732414" xlink:href="#m891411d55d" y="294.637741"/>
     <use style="fill:#ff0000;opacity:0.7;stroke:#ff0000;stroke-linejoin:miter;" x="308.927398" xlink:href="#m891411d55d" y="274.711406"/>
     <use style="fill:#ff0000;opacity:0.7;stroke:#ff0000;stroke-linejoin:miter;" x="320.122382" xlink:href="#m891411d55d" y="266.314506"/>
     <use style="fill:#ff0000;opacity:0.7;stroke:#ff0000;stroke-linejoin:miter;" x="331.317367" xlink:href="#m891411d55d" y="277.758251"/>
     <use style="fill:#ff0000;opacity:0.7;stroke:#ff0000;stroke-linejoin:miter;" x="342.512351" xlink:href="#m891411d55d" y="275.408571"/>
     <use style="fill:#ff0000;opacity:0.7;stroke:#ff0000;stroke-linejoin:miter;" x="353.707335" xlink:href="#m891411d55d" y="263.8241"/>
     <use style="fill:#ff0000;opacity:0.7;stroke:#ff0000;stroke-linejoin:miter;" x="364.90232" xlink:href="#m891411d55d" y="256.185327"/>
     <use style="fill:#ff0000;opacity:0.7;stroke:#ff0000;stroke-linejoin:miter;" x="376.097304" xlink:href="#m891411d55d" y="246.885302"/>
     <use style="fill:#ff0000;opacity:0.7;stroke:#ff0000;stroke-linejoin:miter;" x="387.292288" xlink:href="#m891411d55d" y="246.210305"/>
     <use style="fill:#ff0000;opacity:0.7;stroke:#ff0000;stroke-linejoin:miter;" x="398.487273" xlink:href="#m891411d55d" y="236.093372"/>
    </g>
   </g>
   <g id="line2d_35">
    <path clip-path="url(#pa3bcd5702b)" d="M 73.832727 147.946455 
L 85.027712 143.650304 
L 96.222696 143.654414 
L 107.41768 122.915662 
L 118.612665 119.63077 
L 129.807649 104.221205 
L 141.002633 103.659788 
L 152.197618 104.649145 
L 163.392602 89.06144 
L 174.587586 89.269819 
L 185.782571 177.230392 
L 196.977555 90.826495 
L 208.172539 72.34052 
L 219.367524 160.808726 
L 230.562508 75.593091 
L 241.757492 126.982834 
L 252.952476 60.789227 
L 264.147461 59.914681 
L 275.342445 91.472556 
L 286.537429 56.11011 
L 297.732414 295.488 
L 308.927398 272.948891 
L 320.122382 260.081984 
L 331.317367 280.020526 
L 342.512351 276.632854 
L 353.707335 261.752209 
L 364.90232 257.711273 
L 376.097304 244.818362 
L 387.292288 245.530774 
L 398.487273 229.481563 
" style="fill:none;opacity:0.7;stroke:#0000ff;stroke-linecap:square;stroke-width:1.5;"/>
    <defs>
     <path d="M 0 3 
C 0.795609 3 1.55874 2.683901 2.12132 2.12132 
C 2.683901 1.55874 3 0.795609 3 0 
C 3 -0.795609 2.683901 -1.55874 2.12132 -2.12132 
C 1.55874 -2.683901 0.795609 -3 0 -3 
C -0.795609 -3 -1.55874 -2.683901 -2.12132 -2.12132 
C -2.683901 -1.55874 -3 -0.795609 -3 0 
C -3 0.795609 -2.683901 1.55874 -2.12132 2.12132 
C -1.55874 2.683901 -0.795609 3 0 3 
z
" id="m5edc4157a9" style="stroke:#0000ff;"/>
    </defs>
    <g clip-path="url(#pa3bcd5702b)">
     <use style="fill:#0000ff;opacity:0.7;stroke:#0000ff;" x="73.832727" xlink:href="#m5edc4157a9" y="147.946455"/>
     <use style="fill:#0000ff;opacity:0.7;stroke:#0000ff;" x="85.027712" xlink:href="#m5edc4157a9" y="143.650304"/>
     <use style="fill:#0000ff;opacity:0.7;stroke:#0000ff;" x="96.222696" xlink:href="#m5edc4157a9" y="143.654414"/>
     <use style="fill:#0000ff;opacity:0.7;stroke:#0000ff;" x="107.41768" xlink:href="#m5edc4157a9" y="122.915662"/>
     <use style="fill:#0000ff;opacity:0.7;stroke:#0000ff;" x="118.612665" xlink:href="#m5edc4157a9" y="119.63077"/>
     <use style="fill:#0000ff;opacity:0.7;stroke:#0000ff;" x="129.807649" xlink:href="#m5edc4157a9" y="104.221205"/>
     <use style="fill:#0000ff;opacity:0.7;stroke:#0000ff;" x="141.002633" xlink:href="#m5edc4157a9" y="103.659788"/>
     <use style="fill:#0000ff;opacity:0.7;stroke:#0000ff;" x="152.197618" xlink:href="#m5edc4157a9" y="104.649145"/>
     <use style="fill:#0000ff;opacity:0.7;stroke:#0000ff;" x="163.392602" xlink:href="#m5edc4157a9" y="89.06144"/>
     <use style="fill:#0000ff;opacity:0.7;stroke:#0000ff;" x="174.587586" xlink:href="#m5edc4157a9" y="89.269819"/>
     <use style="fill:#0000ff;opacity:0.7;stroke:#0000ff;" x="185.782571" xlink:href="#m5edc4157a9" y="177.230392"/>
     <use style="fill:#0000ff;opacity:0.7;stroke:#0000ff;" x="196.977555" xlink:href="#m5edc4157a9" y="90.826495"/>
     <use style="fill:#0000ff;opacity:0.7;stroke:#0000ff;" x="208.172539" xlink:href="#m5edc4157a9" y="72.34052"/>
     <use style="fill:#0000ff;opacity:0.7;stroke:#0000ff;" x="219.367524" xlink:href="#m5edc4157a9" y="160.808726"/>
     <use style="fill:#0000ff;opacity:0.7;stroke:#0000ff;" x="230.562508" xlink:href="#m5edc4157a9" y="75.593091"/>
     <use style="fill:#0000ff;opacity:0.7;stroke:#0000ff;" x="241.757492" xlink:href="#m5edc4157a9" y="126.982834"/>
     <use style="fill:#0000ff;opacity:0.7;stroke:#0000ff;" x="252.952476" xlink:href="#m5edc4157a9" y="60.789227"/>
     <use style="fill:#0000ff;opacity:0.7;stroke:#0000ff;" x="264.147461" xlink:href="#m5edc4157a9" y="59.914681"/>
     <use style="fill:#0000ff;opacity:0.7;stroke:#0000ff;" x="275.342445" xlink:href="#m5edc4157a9" y="91.472556"/>
     <use style="fill:#0000ff;opacity:0.7;stroke:#0000ff;" x="286.537429" xlink:href="#m5edc4157a9" y="56.11011"/>
     <use style="fill:#0000ff;opacity:0.7;stroke:#0000ff;" x="297.732414" xlink:href="#m5edc4157a9" y="295.488"/>
     <use style="fill:#0000ff;opacity:0.7;stroke:#0000ff;" x="308.927398" xlink:href="#m5edc4157a9" y="272.948891"/>
     <use style="fill:#0000ff;opacity:0.7;stroke:#0000ff;" x="320.122382" xlink:href="#m5edc4157a9" y="260.081984"/>
     <use style="fill:#0000ff;opacity:0.7;stroke:#0000ff;" x="331.317367" xlink:href="#m5edc4157a9" y="280.020526"/>
     <use style="fill:#0000ff;opacity:0.7;stroke:#0000ff;" x="342.512351" xlink:href="#m5edc4157a9" y="276.632854"/>
     <use style="fill:#0000ff;opacity:0.7;stroke:#0000ff;" x="353.707335" xlink:href="#m5edc4157a9" y="261.752209"/>
     <use style="fill:#0000ff;opacity:0.7;stroke:#0000ff;" x="364.90232" xlink:href="#m5edc4157a9" y="257.711273"/>
     <use style="fill:#0000ff;opacity:0.7;stroke:#0000ff;" x="376.097304" xlink:href="#m5edc4157a9" y="244.818362"/>
     <use style="fill:#0000ff;opacity:0.7;stroke:#0000ff;" x="387.292288" xlink:href="#m5edc4157a9" y="245.530774"/>
     <use style="fill:#0000ff;opacity:0.7;stroke:#0000ff;" x="398.487273" xlink:href="#m5edc4157a9" y="229.481563"/>
    </g>
   </g>
   <g id="patch_3">
    <path d="M 57.6 307.584 
L 57.6 41.472 
" style="fill:none;stroke:#000000;stroke-linecap:square;stroke-linejoin:miter;stroke-width:0.8;"/>
   </g>
   <g id="patch_4">
    <path d="M 414.72 307.584 
L 414.72 41.472 
" style="fill:none;stroke:#000000;stroke-linecap:square;stroke-linejoin:miter;stroke-width:0.8;"/>
   </g>
   <g id="patch_5">
    <path d="M 57.6 307.584 
L 414.72 307.584 
" style="fill:none;stroke:#000000;stroke-linecap:square;stroke-linejoin:miter;stroke-width:0.8;"/>
   </g>
   <g id="patch_6">
    <path d="M 57.6 41.472 
L 414.72 41.472 
" style="fill:none;stroke:#000000;stroke-linecap:square;stroke-linejoin:miter;stroke-width:0.8;"/>
   </g>
   <g id="legend_1">
    <g id="patch_7">
     <path d="M 64.6 302.584 
L 242.110938 302.584 
Q 244.110938 302.584 244.110938 300.584 
L 244.110938 272.22775 
Q 244.110938 270.22775 242.110938 270.22775 
L 64.6 270.22775 
Q 62.6 270.22775 62.6 272.22775 
L 62.6 300.584 
Q 62.6 302.584 64.6 302.584 
z
" style="fill:#ffffff;opacity:0.8;stroke:#cccccc;stroke-linejoin:miter;"/>
    </g>
    <g id="line2d_36">
     <path d="M 66.6 278.326187 
L 86.6 278.326187 
" style="fill:none;opacity:0.7;stroke:#ff0000;stroke-linecap:square;stroke-width:1.5;"/>
    </g>
    <g id="line2d_37">
     <g>
      <use style="fill:#ff0000;opacity:0.7;stroke:#ff0000;stroke-linejoin:miter;" x="76.6" xlink:href="#m891411d55d" y="278.326187"/>
     </g>
    </g>
    <g id="text_12">
     <!-- 001indinv-apalache-unstable -->
     <defs>
      <path d="M 9.421875 54.6875 
L 18.40625 54.6875 
L 18.40625 0 
L 9.421875 0 
z
M 9.421875 75.984375 
L 18.40625 75.984375 
L 18.40625 64.59375 
L 9.421875 64.59375 
z
" id="DejaVuSans-69"/>
      <path d="M 45.40625 46.390625 
L 45.40625 75.984375 
L 54.390625 75.984375 
L 54.390625 0 
L 45.40625 0 
L 45.40625 8.203125 
Q 42.578125 3.328125 38.25 0.953125 
Q 33.9375 -1.421875 27.875 -1.421875 
Q 17.96875 -1.421875 11.734375 6.484375 
Q 5.515625 14.40625 5.515625 27.296875 
Q 5.515625 40.1875 11.734375 48.09375 
Q 17.96875 56 27.875 56 
Q 33.9375 56 38.25 53.625 
Q 42.578125 51.265625 45.40625 46.390625 
z
M 14.796875 27.296875 
Q 14.796875 17.390625 18.875 11.75 
Q 22.953125 6.109375 30.078125 6.109375 
Q 37.203125 6.109375 41.296875 11.75 
Q 45.40625 17.390625 45.40625 27.296875 
Q 45.40625 37.203125 41.296875 42.84375 
Q 37.203125 48.484375 30.078125 48.484375 
Q 22.953125 48.484375 18.875 42.84375 
Q 14.796875 37.203125 14.796875 27.296875 
z
" id="DejaVuSans-64"/>
      <path d="M 2.984375 54.6875 
L 12.5 54.6875 
L 29.59375 8.796875 
L 46.6875 54.6875 
L 56.203125 54.6875 
L 35.6875 0 
L 23.484375 0 
z
" id="DejaVuSans-76"/>
      <path d="M 4.890625 31.390625 
L 31.203125 31.390625 
L 31.203125 23.390625 
L 4.890625 23.390625 
z
" id="DejaVuSans-2d"/>
      <path d="M 18.109375 8.203125 
L 18.109375 -20.796875 
L 9.078125 -20.796875 
L 9.078125 54.6875 
L 18.109375 54.6875 
L 18.109375 46.390625 
Q 20.953125 51.265625 25.265625 53.625 
Q 29.59375 56 35.59375 56 
Q 45.5625 56 51.78125 48.09375 
Q 58.015625 40.1875 58.015625 27.296875 
Q 58.015625 14.40625 51.78125 6.484375 
Q 45.5625 -1.421875 35.59375 -1.421875 
Q 29.59375 -1.421875 25.265625 0.953125 
Q 20.953125 3.328125 18.109375 8.203125 
z
M 48.6875 27.296875 
Q 48.6875 37.203125 44.609375 42.84375 
Q 40.53125 48.484375 33.40625 48.484375 
Q 26.265625 48.484375 22.1875 42.84375 
Q 18.109375 37.203125 18.109375 27.296875 
Q 18.109375 17.390625 22.1875 11.75 
Q 26.265625 6.109375 33.40625 6.109375 
Q 40.53125 6.109375 44.609375 11.75 
Q 48.6875 17.390625 48.6875 27.296875 
z
" id="DejaVuSans-70"/>
      <path d="M 8.5 21.578125 
L 8.5 54.6875 
L 17.484375 54.6875 
L 17.484375 21.921875 
Q 17.484375 14.15625 20.5 10.265625 
Q 23.53125 6.390625 29.59375 6.390625 
Q 36.859375 6.390625 41.078125 11.03125 
Q 45.3125 15.671875 45.3125 23.6875 
L 45.3125 54.6875 
L 54.296875 54.6875 
L 54.296875 0 
L 45.3125 0 
L 45.3125 8.40625 
Q 42.046875 3.421875 37.71875 1 
Q 33.40625 -1.421875 27.6875 -1.421875 
Q 18.265625 -1.421875 13.375 4.4375 
Q 8.5 10.296875 8.5 21.578125 
z
M 31.109375 56 
z
" id="DejaVuSans-75"/>
      <path d="M 18.3125 70.21875 
L 18.3125 54.6875 
L 36.8125 54.6875 
L 36.8125 47.703125 
L 18.3125 47.703125 
L 18.3125 18.015625 
Q 18.3125 11.328125 20.140625 9.421875 
Q 21.96875 7.515625 27.59375 7.515625 
L 36.8125 7.515625 
L 36.8125 0 
L 27.59375 0 
Q 17.1875 0 13.234375 3.875 
Q 9.28125 7.765625 9.28125 18.015625 
L 9.28125 47.703125 
L 2.6875 47.703125 
L 2.6875 54.6875 
L 9.28125 54.6875 
L 9.28125 70.21875 
z
" id="DejaVuSans-74"/>
     </defs>
     <g transform="translate(94.6 281.826187)scale(0.1 -0.1)">
      <use xlink:href="#DejaVuSans-30"/>
      <use x="63.623047" xlink:href="#DejaVuSans-30"/>
      <use x="127.246094" xlink:href="#DejaVuSans-31"/>
      <use x="190.869141" xlink:href="#DejaVuSans-69"/>
      <use x="218.652344" xlink:href="#DejaVuSans-6e"/>
      <use x="282.03125" xlink:href="#DejaVuSans-64"/>
      <use x="345.507812" xlink:href="#DejaVuSans-69"/>
      <use x="373.291016" xlink:href="#DejaVuSans-6e"/>
      <use x="436.669922" xlink:href="#DejaVuSans-76"/>
      <use x="495.818359" xlink:href="#DejaVuSans-2d"/>
      <use x="531.902344" xlink:href="#DejaVuSans-61"/>
      <use x="593.181641" xlink:href="#DejaVuSans-70"/>
      <use x="656.658203" xlink:href="#DejaVuSans-61"/>
      <use x="717.9375" xlink:href="#DejaVuSans-6c"/>
      <use x="745.720703" xlink:href="#DejaVuSans-61"/>
      <use x="807" xlink:href="#DejaVuSans-63"/>
      <use x="861.980469" xlink:href="#DejaVuSans-68"/>
      <use x="925.359375" xlink:href="#DejaVuSans-65"/>
      <use x="986.882812" xlink:href="#DejaVuSans-2d"/>
      <use x="1022.966797" xlink:href="#DejaVuSans-75"/>
      <use x="1086.345703" xlink:href="#DejaVuSans-6e"/>
      <use x="1149.724609" xlink:href="#DejaVuSans-73"/>
      <use x="1201.824219" xlink:href="#DejaVuSans-74"/>
      <use x="1241.033203" xlink:href="#DejaVuSans-61"/>
      <use x="1302.3125" xlink:href="#DejaVuSans-62"/>
      <use x="1365.789062" xlink:href="#DejaVuSans-6c"/>
      <use x="1393.572266" xlink:href="#DejaVuSans-65"/>
     </g>
    </g>
    <g id="line2d_38">
     <path d="M 66.6 293.004312 
L 86.6 293.004312 
" style="fill:none;opacity:0.7;stroke:#0000ff;stroke-linecap:square;stroke-width:1.5;"/>
    </g>
    <g id="line2d_39">
     <g>
      <use style="fill:#0000ff;opacity:0.7;stroke:#0000ff;" x="76.6" xlink:href="#m5edc4157a9" y="293.004312"/>
     </g>
    </g>
    <g id="text_13">
     <!-- 001indinv-apalache-card -->
     <g transform="translate(94.6 296.504312)scale(0.1 -0.1)">
      <use xlink:href="#DejaVuSans-30"/>
      <use x="63.623047" xlink:href="#DejaVuSans-30"/>
      <use x="127.246094" xlink:href="#DejaVuSans-31"/>
      <use x="190.869141" xlink:href="#DejaVuSans-69"/>
      <use x="218.652344" xlink:href="#DejaVuSans-6e"/>
      <use x="282.03125" xlink:href="#DejaVuSans-64"/>
      <use x="345.507812" xlink:href="#DejaVuSans-69"/>
      <use x="373.291016" xlink:href="#DejaVuSans-6e"/>
      <use x="436.669922" xlink:href="#DejaVuSans-76"/>
      <use x="495.818359" xlink:href="#DejaVuSans-2d"/>
      <use x="531.902344" xlink:href="#DejaVuSans-61"/>
      <use x="593.181641" xlink:href="#DejaVuSans-70"/>
      <use x="656.658203" xlink:href="#DejaVuSans-61"/>
      <use x="717.9375" xlink:href="#DejaVuSans-6c"/>
      <use x="745.720703" xlink:href="#DejaVuSans-61"/>
      <use x="807" xlink:href="#DejaVuSans-63"/>
      <use x="861.980469" xlink:href="#DejaVuSans-68"/>
      <use x="925.359375" xlink:href="#DejaVuSans-65"/>
      <use x="986.882812" xlink:href="#DejaVuSans-2d"/>
      <use x="1022.966797" xlink:href="#DejaVuSans-63"/>
      <use x="1077.947266" xlink:href="#DejaVuSans-61"/>
      <use x="1139.226562" xlink:href="#DejaVuSans-72"/>
      <use x="1180.324219" xlink:href="#DejaVuSans-64"/>
     </g>
    </g>
   </g>
  </g>
 </g>
 <defs>
  <clipPath id="pa3bcd5702b">
   <rect height="266.112" width="357.12" x="57.6" y="41.472"/>
  </clipPath>
 </defs>
</svg>
