<?xml version="1.0" encoding="utf-8" standalone="no"?>
<!DOCTYPE svg PUBLIC "-//W3C//DTD SVG 1.1//EN"
  "http://www.w3.org/Graphics/SVG/1.1/DTD/svg11.dtd">
<!-- Created with matplotlib (http://matplotlib.org/) -->
<svg height="345pt" version="1.1" viewBox="0 0 460 345" width="460pt" xmlns="http://www.w3.org/2000/svg" xmlns:xlink="http://www.w3.org/1999/xlink">
 <defs>
  <style type="text/css">
*{stroke-linecap:butt;stroke-linejoin:round;}
  </style>
 </defs>
 <g id="figure_1">
  <g id="patch_1">
   <path d="M 0 345.6 
L 460.8 345.6 
L 460.8 0 
L 0 0 
z
" style="fill:#ffffff;"/>
  </g>
  <g id="axes_1">
   <g id="patch_2">
    <path d="M 57.6 307.584 
L 414.72 307.584 
L 414.72 41.472 
L 57.6 41.472 
z
" style="fill:#ffffff;"/>
   </g>
   <g id="matplotlib.axis_1">
    <g id="xtick_1">
     <g id="line2d_1">
      <path clip-path="url(#p29a4bcbbaa)" d="M 62.637743 307.584 
L 62.637743 41.472 
" style="fill:none;opacity:0.2;stroke:#b0b0b0;stroke-linecap:square;stroke-width:0.8;"/>
     </g>
     <g id="line2d_2">
      <defs>
       <path d="M 0 0 
L 0 3.5 
" id="m4156316fc9" style="stroke:#000000;stroke-width:0.8;"/>
      </defs>
      <g>
       <use style="stroke:#000000;stroke-width:0.8;" x="62.637743" xlink:href="#m4156316fc9" y="307.584"/>
      </g>
     </g>
     <g id="text_1">
      <!-- 0 -->
      <defs>
       <path d="M 31.78125 66.40625 
Q 24.171875 66.40625 20.328125 58.90625 
Q 16.5 51.421875 16.5 36.375 
Q 16.5 21.390625 20.328125 13.890625 
Q 24.171875 6.390625 31.78125 6.390625 
Q 39.453125 6.390625 43.28125 13.890625 
Q 47.125 21.390625 47.125 36.375 
Q 47.125 51.421875 43.28125 58.90625 
Q 39.453125 66.40625 31.78125 66.40625 
z
M 31.78125 74.21875 
Q 44.046875 74.21875 50.515625 64.515625 
Q 56.984375 54.828125 56.984375 36.375 
Q 56.984375 17.96875 50.515625 8.265625 
Q 44.046875 -1.421875 31.78125 -1.421875 
Q 19.53125 -1.421875 13.0625 8.265625 
Q 6.59375 17.96875 6.59375 36.375 
Q 6.59375 54.828125 13.0625 64.515625 
Q 19.53125 74.21875 31.78125 74.21875 
z
" id="DejaVuSans-30"/>
      </defs>
      <g transform="translate(59.456493 322.182437)scale(0.1 -0.1)">
       <use xlink:href="#DejaVuSans-30"/>
      </g>
     </g>
    </g>
    <g id="xtick_2">
     <g id="line2d_3">
      <path clip-path="url(#p29a4bcbbaa)" d="M 118.612665 307.584 
L 118.612665 41.472 
" style="fill:none;opacity:0.2;stroke:#b0b0b0;stroke-linecap:square;stroke-width:0.8;"/>
     </g>
     <g id="line2d_4">
      <g>
       <use style="stroke:#000000;stroke-width:0.8;" x="118.612665" xlink:href="#m4156316fc9" y="307.584"/>
      </g>
     </g>
     <g id="text_2">
      <!-- 5 -->
      <defs>
       <path d="M 10.796875 72.90625 
L 49.515625 72.90625 
L 49.515625 64.59375 
L 19.828125 64.59375 
L 19.828125 46.734375 
Q 21.96875 47.46875 24.109375 47.828125 
Q 26.265625 48.1875 28.421875 48.1875 
Q 40.625 48.1875 47.75 41.5 
Q 54.890625 34.8125 54.890625 23.390625 
Q 54.890625 11.625 47.5625 5.09375 
Q 40.234375 -1.421875 26.90625 -1.421875 
Q 22.3125 -1.421875 17.546875 -0.640625 
Q 12.796875 0.140625 7.71875 1.703125 
L 7.71875 11.625 
Q 12.109375 9.234375 16.796875 8.0625 
Q 21.484375 6.890625 26.703125 6.890625 
Q 35.15625 6.890625 40.078125 11.328125 
Q 45.015625 15.765625 45.015625 23.390625 
Q 45.015625 31 40.078125 35.4375 
Q 35.15625 39.890625 26.703125 39.890625 
Q 22.75 39.890625 18.8125 39.015625 
Q 14.890625 38.140625 10.796875 36.28125 
z
" id="DejaVuSans-35"/>
      </defs>
      <g transform="translate(115.431415 322.182437)scale(0.1 -0.1)">
       <use xlink:href="#DejaVuSans-35"/>
      </g>
     </g>
    </g>
    <g id="xtick_3">
     <g id="line2d_5">
      <path clip-path="url(#p29a4bcbbaa)" d="M 174.587586 307.584 
L 174.587586 41.472 
" style="fill:none;opacity:0.2;stroke:#b0b0b0;stroke-linecap:square;stroke-width:0.8;"/>
     </g>
     <g id="line2d_6">
      <g>
       <use style="stroke:#000000;stroke-width:0.8;" x="174.587586" xlink:href="#m4156316fc9" y="307.584"/>
      </g>
     </g>
     <g id="text_3">
      <!-- 10 -->
      <defs>
       <path d="M 12.40625 8.296875 
L 28.515625 8.296875 
L 28.515625 63.921875 
L 10.984375 60.40625 
L 10.984375 69.390625 
L 28.421875 72.90625 
L 38.28125 72.90625 
L 38.28125 8.296875 
L 54.390625 8.296875 
L 54.390625 0 
L 12.40625 0 
z
" id="DejaVuSans-31"/>
      </defs>
      <g transform="translate(168.225086 322.182437)scale(0.1 -0.1)">
       <use xlink:href="#DejaVuSans-31"/>
       <use x="63.623047" xlink:href="#DejaVuSans-30"/>
      </g>
     </g>
    </g>
    <g id="xtick_4">
     <g id="line2d_7">
      <path clip-path="url(#p29a4bcbbaa)" d="M 230.562508 307.584 
L 230.562508 41.472 
" style="fill:none;opacity:0.2;stroke:#b0b0b0;stroke-linecap:square;stroke-width:0.8;"/>
     </g>
     <g id="line2d_8">
      <g>
       <use style="stroke:#000000;stroke-width:0.8;" x="230.562508" xlink:href="#m4156316fc9" y="307.584"/>
      </g>
     </g>
     <g id="text_4">
      <!-- 15 -->
      <g transform="translate(224.200008 322.182437)scale(0.1 -0.1)">
       <use xlink:href="#DejaVuSans-31"/>
       <use x="63.623047" xlink:href="#DejaVuSans-35"/>
      </g>
     </g>
    </g>
    <g id="xtick_5">
     <g id="line2d_9">
      <path clip-path="url(#p29a4bcbbaa)" d="M 286.537429 307.584 
L 286.537429 41.472 
" style="fill:none;opacity:0.2;stroke:#b0b0b0;stroke-linecap:square;stroke-width:0.8;"/>
     </g>
     <g id="line2d_10">
      <g>
       <use style="stroke:#000000;stroke-width:0.8;" x="286.537429" xlink:href="#m4156316fc9" y="307.584"/>
      </g>
     </g>
     <g id="text_5">
      <!-- 20 -->
      <defs>
       <path d="M 19.1875 8.296875 
L 53.609375 8.296875 
L 53.609375 0 
L 7.328125 0 
L 7.328125 8.296875 
Q 12.9375 14.109375 22.625 23.890625 
Q 32.328125 33.6875 34.8125 36.53125 
Q 39.546875 41.84375 41.421875 45.53125 
Q 43.3125 49.21875 43.3125 52.78125 
Q 43.3125 58.59375 39.234375 62.25 
Q 35.15625 65.921875 28.609375 65.921875 
Q 23.96875 65.921875 18.8125 64.3125 
Q 13.671875 62.703125 7.8125 59.421875 
L 7.8125 69.390625 
Q 13.765625 71.78125 18.9375 73 
Q 24.125 74.21875 28.421875 74.21875 
Q 39.75 74.21875 46.484375 68.546875 
Q 53.21875 62.890625 53.21875 53.421875 
Q 53.21875 48.921875 51.53125 44.890625 
Q 49.859375 40.875 45.40625 35.40625 
Q 44.1875 33.984375 37.640625 27.21875 
Q 31.109375 20.453125 19.1875 8.296875 
z
" id="DejaVuSans-32"/>
      </defs>
      <g transform="translate(280.174929 322.182437)scale(0.1 -0.1)">
       <use xlink:href="#DejaVuSans-32"/>
       <use x="63.623047" xlink:href="#DejaVuSans-30"/>
      </g>
     </g>
    </g>
    <g id="xtick_6">
     <g id="line2d_11">
      <path clip-path="url(#p29a4bcbbaa)" d="M 342.512351 307.584 
L 342.512351 41.472 
" style="fill:none;opacity:0.2;stroke:#b0b0b0;stroke-linecap:square;stroke-width:0.8;"/>
     </g>
     <g id="line2d_12">
      <g>
       <use style="stroke:#000000;stroke-width:0.8;" x="342.512351" xlink:href="#m4156316fc9" y="307.584"/>
      </g>
     </g>
     <g id="text_6">
      <!-- 25 -->
      <g transform="translate(336.149851 322.182437)scale(0.1 -0.1)">
       <use xlink:href="#DejaVuSans-32"/>
       <use x="63.623047" xlink:href="#DejaVuSans-35"/>
      </g>
     </g>
    </g>
    <g id="xtick_7">
     <g id="line2d_13">
      <path clip-path="url(#p29a4bcbbaa)" d="M 398.487273 307.584 
L 398.487273 41.472 
" style="fill:none;opacity:0.2;stroke:#b0b0b0;stroke-linecap:square;stroke-width:0.8;"/>
     </g>
     <g id="line2d_14">
      <g>
       <use style="stroke:#000000;stroke-width:0.8;" x="398.487273" xlink:href="#m4156316fc9" y="307.584"/>
      </g>
     </g>
     <g id="text_7">
      <!-- 30 -->
      <defs>
       <path d="M 40.578125 39.3125 
Q 47.65625 37.796875 51.625 33 
Q 55.609375 28.21875 55.609375 21.1875 
Q 55.609375 10.40625 48.1875 4.484375 
Q 40.765625 -1.421875 27.09375 -1.421875 
Q 22.515625 -1.421875 17.65625 -0.515625 
Q 12.796875 0.390625 7.625 2.203125 
L 7.625 11.71875 
Q 11.71875 9.328125 16.59375 8.109375 
Q 21.484375 6.890625 26.8125 6.890625 
Q 36.078125 6.890625 40.9375 10.546875 
Q 45.796875 14.203125 45.796875 21.1875 
Q 45.796875 27.640625 41.28125 31.265625 
Q 36.765625 34.90625 28.71875 34.90625 
L 20.21875 34.90625 
L 20.21875 43.015625 
L 29.109375 43.015625 
Q 36.375 43.015625 40.234375 45.921875 
Q 44.09375 48.828125 44.09375 54.296875 
Q 44.09375 59.90625 40.109375 62.90625 
Q 36.140625 65.921875 28.71875 65.921875 
Q 24.65625 65.921875 20.015625 65.03125 
Q 15.375 64.15625 9.8125 62.3125 
L 9.8125 71.09375 
Q 15.4375 72.65625 20.34375 73.4375 
Q 25.25 74.21875 29.59375 74.21875 
Q 40.828125 74.21875 47.359375 69.109375 
Q 53.90625 64.015625 53.90625 55.328125 
Q 53.90625 49.265625 50.4375 45.09375 
Q 46.96875 40.921875 40.578125 39.3125 
z
" id="DejaVuSans-33"/>
      </defs>
      <g transform="translate(392.124773 322.182437)scale(0.1 -0.1)">
       <use xlink:href="#DejaVuSans-33"/>
       <use x="63.623047" xlink:href="#DejaVuSans-30"/>
      </g>
     </g>
    </g>
    <g id="text_8">
     <!-- benchmark -->
     <defs>
      <path d="M 48.6875 27.296875 
Q 48.6875 37.203125 44.609375 42.84375 
Q 40.53125 48.484375 33.40625 48.484375 
Q 26.265625 48.484375 22.1875 42.84375 
Q 18.109375 37.203125 18.109375 27.296875 
Q 18.109375 17.390625 22.1875 11.75 
Q 26.265625 6.109375 33.40625 6.109375 
Q 40.53125 6.109375 44.609375 11.75 
Q 48.6875 17.390625 48.6875 27.296875 
z
M 18.109375 46.390625 
Q 20.953125 51.265625 25.265625 53.625 
Q 29.59375 56 35.59375 56 
Q 45.5625 56 51.78125 48.09375 
Q 58.015625 40.1875 58.015625 27.296875 
Q 58.015625 14.40625 51.78125 6.484375 
Q 45.5625 -1.421875 35.59375 -1.421875 
Q 29.59375 -1.421875 25.265625 0.953125 
Q 20.953125 3.328125 18.109375 8.203125 
L 18.109375 0 
L 9.078125 0 
L 9.078125 75.984375 
L 18.109375 75.984375 
z
" id="DejaVuSans-62"/>
      <path d="M 56.203125 29.59375 
L 56.203125 25.203125 
L 14.890625 25.203125 
Q 15.484375 15.921875 20.484375 11.0625 
Q 25.484375 6.203125 34.421875 6.203125 
Q 39.59375 6.203125 44.453125 7.46875 
Q 49.3125 8.734375 54.109375 11.28125 
L 54.109375 2.78125 
Q 49.265625 0.734375 44.1875 -0.34375 
Q 39.109375 -1.421875 33.890625 -1.421875 
Q 20.796875 -1.421875 13.15625 6.1875 
Q 5.515625 13.8125 5.515625 26.8125 
Q 5.515625 40.234375 12.765625 48.109375 
Q 20.015625 56 32.328125 56 
Q 43.359375 56 49.78125 48.890625 
Q 56.203125 41.796875 56.203125 29.59375 
z
M 47.21875 32.234375 
Q 47.125 39.59375 43.09375 43.984375 
Q 39.0625 48.390625 32.421875 48.390625 
Q 24.90625 48.390625 20.390625 44.140625 
Q 15.875 39.890625 15.1875 32.171875 
z
" id="DejaVuSans-65"/>
      <path d="M 54.890625 33.015625 
L 54.890625 0 
L 45.90625 0 
L 45.90625 32.71875 
Q 45.90625 40.484375 42.875 44.328125 
Q 39.84375 48.1875 33.796875 48.1875 
Q 26.515625 48.1875 22.3125 43.546875 
Q 18.109375 38.921875 18.109375 30.90625 
L 18.109375 0 
L 9.078125 0 
L 9.078125 54.6875 
L 18.109375 54.6875 
L 18.109375 46.1875 
Q 21.34375 51.125 25.703125 53.5625 
Q 30.078125 56 35.796875 56 
Q 45.21875 56 50.046875 50.171875 
Q 54.890625 44.34375 54.890625 33.015625 
z
" id="DejaVuSans-6e"/>
      <path d="M 48.78125 52.59375 
L 48.78125 44.1875 
Q 44.96875 46.296875 41.140625 47.34375 
Q 37.3125 48.390625 33.40625 48.390625 
Q 24.65625 48.390625 19.8125 42.84375 
Q 14.984375 37.3125 14.984375 27.296875 
Q 14.984375 17.28125 19.8125 11.734375 
Q 24.65625 6.203125 33.40625 6.203125 
Q 37.3125 6.203125 41.140625 7.25 
Q 44.96875 8.296875 48.78125 10.40625 
L 48.78125 2.09375 
Q 45.015625 0.34375 40.984375 -0.53125 
Q 36.96875 -1.421875 32.421875 -1.421875 
Q 20.0625 -1.421875 12.78125 6.34375 
Q 5.515625 14.109375 5.515625 27.296875 
Q 5.515625 40.671875 12.859375 48.328125 
Q 20.21875 56 33.015625 56 
Q 37.15625 56 41.109375 55.140625 
Q 45.0625 54.296875 48.78125 52.59375 
z
" id="DejaVuSans-63"/>
      <path d="M 54.890625 33.015625 
L 54.890625 0 
L 45.90625 0 
L 45.90625 32.71875 
Q 45.90625 40.484375 42.875 44.328125 
Q 39.84375 48.1875 33.796875 48.1875 
Q 26.515625 48.1875 22.3125 43.546875 
Q 18.109375 38.921875 18.109375 30.90625 
L 18.109375 0 
L 9.078125 0 
L 9.078125 75.984375 
L 18.109375 75.984375 
L 18.109375 46.1875 
Q 21.34375 51.125 25.703125 53.5625 
Q 30.078125 56 35.796875 56 
Q 45.21875 56 50.046875 50.171875 
Q 54.890625 44.34375 54.890625 33.015625 
z
" id="DejaVuSans-68"/>
      <path d="M 52 44.1875 
Q 55.375 50.25 60.0625 53.125 
Q 64.75 56 71.09375 56 
Q 79.640625 56 84.28125 50.015625 
Q 88.921875 44.046875 88.921875 33.015625 
L 88.921875 0 
L 79.890625 0 
L 79.890625 32.71875 
Q 79.890625 40.578125 77.09375 44.375 
Q 74.3125 48.1875 68.609375 48.1875 
Q 61.625 48.1875 57.5625 43.546875 
Q 53.515625 38.921875 53.515625 30.90625 
L 53.515625 0 
L 44.484375 0 
L 44.484375 32.71875 
Q 44.484375 40.625 41.703125 44.40625 
Q 38.921875 48.1875 33.109375 48.1875 
Q 26.21875 48.1875 22.15625 43.53125 
Q 18.109375 38.875 18.109375 30.90625 
L 18.109375 0 
L 9.078125 0 
L 9.078125 54.6875 
L 18.109375 54.6875 
L 18.109375 46.1875 
Q 21.1875 51.21875 25.484375 53.609375 
Q 29.78125 56 35.6875 56 
Q 41.65625 56 45.828125 52.96875 
Q 50 49.953125 52 44.1875 
z
" id="DejaVuSans-6d"/>
      <path d="M 34.28125 27.484375 
Q 23.390625 27.484375 19.1875 25 
Q 14.984375 22.515625 14.984375 16.5 
Q 14.984375 11.71875 18.140625 8.90625 
Q 21.296875 6.109375 26.703125 6.109375 
Q 34.1875 6.109375 38.703125 11.40625 
Q 43.21875 16.703125 43.21875 25.484375 
L 43.21875 27.484375 
z
M 52.203125 31.203125 
L 52.203125 0 
L 43.21875 0 
L 43.21875 8.296875 
Q 40.140625 3.328125 35.546875 0.953125 
Q 30.953125 -1.421875 24.3125 -1.421875 
Q 15.921875 -1.421875 10.953125 3.296875 
Q 6 8.015625 6 15.921875 
Q 6 25.140625 12.171875 29.828125 
Q 18.359375 34.515625 30.609375 34.515625 
L 43.21875 34.515625 
L 43.21875 35.40625 
Q 43.21875 41.609375 39.140625 45 
Q 35.0625 48.390625 27.6875 48.390625 
Q 23 48.390625 18.546875 47.265625 
Q 14.109375 46.140625 10.015625 43.890625 
L 10.015625 52.203125 
Q 14.9375 54.109375 19.578125 55.046875 
Q 24.21875 56 28.609375 56 
Q 40.484375 56 46.34375 49.84375 
Q 52.203125 43.703125 52.203125 31.203125 
z
" id="DejaVuSans-61"/>
      <path d="M 41.109375 46.296875 
Q 39.59375 47.171875 37.8125 47.578125 
Q 36.03125 48 33.890625 48 
Q 26.265625 48 22.1875 43.046875 
Q 18.109375 38.09375 18.109375 28.8125 
L 18.109375 0 
L 9.078125 0 
L 9.078125 54.6875 
L 18.109375 54.6875 
L 18.109375 46.1875 
Q 20.953125 51.171875 25.484375 53.578125 
Q 30.03125 56 36.53125 56 
Q 37.453125 56 38.578125 55.875 
Q 39.703125 55.765625 41.0625 55.515625 
z
" id="DejaVuSans-72"/>
      <path d="M 9.078125 75.984375 
L 18.109375 75.984375 
L 18.109375 31.109375 
L 44.921875 54.6875 
L 56.390625 54.6875 
L 27.390625 29.109375 
L 57.625 0 
L 45.90625 0 
L 18.109375 26.703125 
L 18.109375 0 
L 9.078125 0 
z
" id="DejaVuSans-6b"/>
     </defs>
     <g transform="translate(207.937344 335.860562)scale(0.1 -0.1)">
      <use xlink:href="#DejaVuSans-62"/>
      <use x="63.476562" xlink:href="#DejaVuSans-65"/>
      <use x="125" xlink:href="#DejaVuSans-6e"/>
      <use x="188.378906" xlink:href="#DejaVuSans-63"/>
      <use x="243.359375" xlink:href="#DejaVuSans-68"/>
      <use x="306.738281" xlink:href="#DejaVuSans-6d"/>
      <use x="404.150391" xlink:href="#DejaVuSans-61"/>
      <use x="465.429688" xlink:href="#DejaVuSans-72"/>
      <use x="506.542969" xlink:href="#DejaVuSans-6b"/>
     </g>
    </g>
   </g>
   <g id="matplotlib.axis_2">
    <g id="ytick_1">
     <g id="line2d_15">
      <path clip-path="url(#p29a4bcbbaa)" d="M 57.6 300.147386 
L 414.72 300.147386 
" style="fill:none;opacity:0.2;stroke:#b0b0b0;stroke-linecap:square;stroke-width:0.8;"/>
     </g>
     <g id="line2d_16">
      <defs>
       <path d="M 0 0 
L -3.5 0 
" id="m6256ac7755" style="stroke:#000000;stroke-width:0.8;"/>
      </defs>
      <g>
       <use style="stroke:#000000;stroke-width:0.8;" x="57.6" xlink:href="#m6256ac7755" y="300.147386"/>
      </g>
     </g>
     <g id="text_9">
      <!-- 0.0 -->
      <defs>
       <path d="M 10.6875 12.40625 
L 21 12.40625 
L 21 0 
L 10.6875 0 
z
" id="DejaVuSans-2e"/>
      </defs>
      <g transform="translate(34.696875 303.946604)scale(0.1 -0.1)">
       <use xlink:href="#DejaVuSans-30"/>
       <use x="63.623047" xlink:href="#DejaVuSans-2e"/>
       <use x="95.410156" xlink:href="#DejaVuSans-30"/>
      </g>
     </g>
    </g>
    <g id="ytick_2">
     <g id="line2d_17">
      <path clip-path="url(#p29a4bcbbaa)" d="M 57.6 260.966017 
L 414.72 260.966017 
" style="fill:none;opacity:0.2;stroke:#b0b0b0;stroke-linecap:square;stroke-width:0.8;"/>
     </g>
     <g id="line2d_18">
      <g>
       <use style="stroke:#000000;stroke-width:0.8;" x="57.6" xlink:href="#m6256ac7755" y="260.966017"/>
      </g>
     </g>
     <g id="text_10">
      <!-- 0.5 -->
      <g transform="translate(34.696875 264.765236)scale(0.1 -0.1)">
       <use xlink:href="#DejaVuSans-30"/>
       <use x="63.623047" xlink:href="#DejaVuSans-2e"/>
       <use x="95.410156" xlink:href="#DejaVuSans-35"/>
      </g>
     </g>
    </g>
    <g id="ytick_3">
     <g id="line2d_19">
      <path clip-path="url(#p29a4bcbbaa)" d="M 57.6 221.784649 
L 414.72 221.784649 
" style="fill:none;opacity:0.2;stroke:#b0b0b0;stroke-linecap:square;stroke-width:0.8;"/>
     </g>
     <g id="line2d_20">
      <g>
       <use style="stroke:#000000;stroke-width:0.8;" x="57.6" xlink:href="#m6256ac7755" y="221.784649"/>
      </g>
     </g>
     <g id="text_11">
      <!-- 1.0 -->
      <g transform="translate(34.696875 225.583867)scale(0.1 -0.1)">
       <use xlink:href="#DejaVuSans-31"/>
       <use x="63.623047" xlink:href="#DejaVuSans-2e"/>
       <use x="95.410156" xlink:href="#DejaVuSans-30"/>
      </g>
     </g>
    </g>
    <g id="ytick_4">
     <g id="line2d_21">
      <path clip-path="url(#p29a4bcbbaa)" d="M 57.6 182.60328 
L 414.72 182.60328 
" style="fill:none;opacity:0.2;stroke:#b0b0b0;stroke-linecap:square;stroke-width:0.8;"/>
     </g>
     <g id="line2d_22">
      <g>
       <use style="stroke:#000000;stroke-width:0.8;" x="57.6" xlink:href="#m6256ac7755" y="182.60328"/>
      </g>
     </g>
     <g id="text_12">
      <!-- 1.5 -->
      <g transform="translate(34.696875 186.402499)scale(0.1 -0.1)">
       <use xlink:href="#DejaVuSans-31"/>
       <use x="63.623047" xlink:href="#DejaVuSans-2e"/>
       <use x="95.410156" xlink:href="#DejaVuSans-35"/>
      </g>
     </g>
    </g>
    <g id="ytick_5">
     <g id="line2d_23">
      <path clip-path="url(#p29a4bcbbaa)" d="M 57.6 143.421912 
L 414.72 143.421912 
" style="fill:none;opacity:0.2;stroke:#b0b0b0;stroke-linecap:square;stroke-width:0.8;"/>
     </g>
     <g id="line2d_24">
      <g>
       <use style="stroke:#000000;stroke-width:0.8;" x="57.6" xlink:href="#m6256ac7755" y="143.421912"/>
      </g>
     </g>
     <g id="text_13">
      <!-- 2.0 -->
      <g transform="translate(34.696875 147.22113)scale(0.1 -0.1)">
       <use xlink:href="#DejaVuSans-32"/>
       <use x="63.623047" xlink:href="#DejaVuSans-2e"/>
       <use x="95.410156" xlink:href="#DejaVuSans-30"/>
      </g>
     </g>
    </g>
    <g id="ytick_6">
     <g id="line2d_25">
      <path clip-path="url(#p29a4bcbbaa)" d="M 57.6 104.240543 
L 414.72 104.240543 
" style="fill:none;opacity:0.2;stroke:#b0b0b0;stroke-linecap:square;stroke-width:0.8;"/>
     </g>
     <g id="line2d_26">
      <g>
       <use style="stroke:#000000;stroke-width:0.8;" x="57.6" xlink:href="#m6256ac7755" y="104.240543"/>
      </g>
     </g>
     <g id="text_14">
      <!-- 2.5 -->
      <g transform="translate(34.696875 108.039762)scale(0.1 -0.1)">
       <use xlink:href="#DejaVuSans-32"/>
       <use x="63.623047" xlink:href="#DejaVuSans-2e"/>
       <use x="95.410156" xlink:href="#DejaVuSans-35"/>
      </g>
     </g>
    </g>
    <g id="ytick_7">
     <g id="line2d_27">
      <path clip-path="url(#p29a4bcbbaa)" d="M 57.6 65.059174 
L 414.72 65.059174 
" style="fill:none;opacity:0.2;stroke:#b0b0b0;stroke-linecap:square;stroke-width:0.8;"/>
     </g>
     <g id="line2d_28">
      <g>
       <use style="stroke:#000000;stroke-width:0.8;" x="57.6" xlink:href="#m6256ac7755" y="65.059174"/>
      </g>
     </g>
     <g id="text_15">
      <!-- 3.0 -->
      <g transform="translate(34.696875 68.858393)scale(0.1 -0.1)">
       <use xlink:href="#DejaVuSans-33"/>
       <use x="63.623047" xlink:href="#DejaVuSans-2e"/>
       <use x="95.410156" xlink:href="#DejaVuSans-30"/>
      </g>
     </g>
    </g>
    <g id="text_16">
     <!-- memory, KB -->
     <defs>
      <path d="M 30.609375 48.390625 
Q 23.390625 48.390625 19.1875 42.75 
Q 14.984375 37.109375 14.984375 27.296875 
Q 14.984375 17.484375 19.15625 11.84375 
Q 23.34375 6.203125 30.609375 6.203125 
Q 37.796875 6.203125 41.984375 11.859375 
Q 46.1875 17.53125 46.1875 27.296875 
Q 46.1875 37.015625 41.984375 42.703125 
Q 37.796875 48.390625 30.609375 48.390625 
z
M 30.609375 56 
Q 42.328125 56 49.015625 48.375 
Q 55.71875 40.765625 55.71875 27.296875 
Q 55.71875 13.875 49.015625 6.21875 
Q 42.328125 -1.421875 30.609375 -1.421875 
Q 18.84375 -1.421875 12.171875 6.21875 
Q 5.515625 13.875 5.515625 27.296875 
Q 5.515625 40.765625 12.171875 48.375 
Q 18.84375 56 30.609375 56 
z
" id="DejaVuSans-6f"/>
      <path d="M 32.171875 -5.078125 
Q 28.375 -14.84375 24.75 -17.8125 
Q 21.140625 -20.796875 15.09375 -20.796875 
L 7.90625 -20.796875 
L 7.90625 -13.28125 
L 13.1875 -13.28125 
Q 16.890625 -13.28125 18.9375 -11.515625 
Q 21 -9.765625 23.484375 -3.21875 
L 25.09375 0.875 
L 2.984375 54.6875 
L 12.5 54.6875 
L 29.59375 11.921875 
L 46.6875 54.6875 
L 56.203125 54.6875 
z
" id="DejaVuSans-79"/>
      <path d="M 11.71875 12.40625 
L 22.015625 12.40625 
L 22.015625 4 
L 14.015625 -11.625 
L 7.71875 -11.625 
L 11.71875 4 
z
" id="DejaVuSans-2c"/>
      <path id="DejaVuSans-20"/>
      <path d="M 9.8125 72.90625 
L 19.671875 72.90625 
L 19.671875 42.09375 
L 52.390625 72.90625 
L 65.09375 72.90625 
L 28.90625 38.921875 
L 67.671875 0 
L 54.6875 0 
L 19.671875 35.109375 
L 19.671875 0 
L 9.8125 0 
z
" id="DejaVuSans-4b"/>
      <path d="M 19.671875 34.8125 
L 19.671875 8.109375 
L 35.5 8.109375 
Q 43.453125 8.109375 47.28125 11.40625 
Q 51.125 14.703125 51.125 21.484375 
Q 51.125 28.328125 47.28125 31.5625 
Q 43.453125 34.8125 35.5 34.8125 
z
M 19.671875 64.796875 
L 19.671875 42.828125 
L 34.28125 42.828125 
Q 41.5 42.828125 45.03125 45.53125 
Q 48.578125 48.25 48.578125 53.8125 
Q 48.578125 59.328125 45.03125 62.0625 
Q 41.5 64.796875 34.28125 64.796875 
z
M 9.8125 72.90625 
L 35.015625 72.90625 
Q 46.296875 72.90625 52.390625 68.21875 
Q 58.5 63.53125 58.5 54.890625 
Q 58.5 48.1875 55.375 44.234375 
Q 52.25 40.28125 46.1875 39.3125 
Q 53.46875 37.75 57.5 32.78125 
Q 61.53125 27.828125 61.53125 20.40625 
Q 61.53125 10.640625 54.890625 5.3125 
Q 48.25 0 35.984375 0 
L 9.8125 0 
z
" id="DejaVuSans-42"/>
     </defs>
     <g transform="translate(28.617187 205.306906)rotate(-90)scale(0.1 -0.1)">
      <use xlink:href="#DejaVuSans-6d"/>
      <use x="97.412109" xlink:href="#DejaVuSans-65"/>
      <use x="158.935547" xlink:href="#DejaVuSans-6d"/>
      <use x="256.347656" xlink:href="#DejaVuSans-6f"/>
      <use x="317.529297" xlink:href="#DejaVuSans-72"/>
      <use x="358.642578" xlink:href="#DejaVuSans-79"/>
      <use x="417.822266" xlink:href="#DejaVuSans-2c"/>
      <use x="449.609375" xlink:href="#DejaVuSans-20"/>
      <use x="481.396484" xlink:href="#DejaVuSans-4b"/>
      <use x="546.972656" xlink:href="#DejaVuSans-42"/>
     </g>
    </g>
    <g id="text_17">
     <!-- 1e7 -->
     <defs>
      <path d="M 8.203125 72.90625 
L 55.078125 72.90625 
L 55.078125 68.703125 
L 28.609375 0 
L 18.3125 0 
L 43.21875 64.59375 
L 8.203125 64.59375 
z
" id="DejaVuSans-37"/>
     </defs>
     <g transform="translate(57.6 38.472)scale(0.1 -0.1)">
      <use xlink:href="#DejaVuSans-31"/>
      <use x="63.623047" xlink:href="#DejaVuSans-65"/>
      <use x="125.146484" xlink:href="#DejaVuSans-37"/>
     </g>
    </g>
   </g>
   <g id="line2d_29">
    <path clip-path="url(#p29a4bcbbaa)" d="M 73.832727 233.555578 
L 85.027712 231.282839 
L 96.222696 235.229281 
L 107.41768 201.819861 
L 118.612665 202.415888 
L 129.807649 179.307876 
L 141.002633 177.10184 
L 152.197618 182.214852 
L 163.392602 130.248414 
L 174.587586 131.89143 
L 185.782571 256.720324 
L 196.977555 154.245404 
L 208.172539 112.599496 
L 219.367524 235.682029 
L 230.562508 120.639294 
L 241.757492 186.955735 
L 252.952476 73.03647 
L 264.147461 74.239871 
L 275.342445 142.328908 
L 286.537429 53.568 
L 297.732414 295.422551 
L 308.927398 293.595634 
L 320.122382 292.62798 
L 331.317367 293.915072 
L 342.512351 293.670141 
L 353.707335 292.314403 
L 364.90232 291.268637 
L 376.097304 289.805197 
L 387.292288 289.690035 
L 398.487273 287.802057 
" style="fill:none;opacity:0.7;stroke:#ff0000;stroke-linecap:square;stroke-width:1.5;"/>
    <defs>
     <path d="M -3 3 
L 3 3 
L 3 -3 
L -3 -3 
z
" id="m30e98023d4" style="stroke:#ff0000;stroke-linejoin:miter;"/>
    </defs>
    <g clip-path="url(#p29a4bcbbaa)">
     <use style="fill:#ff0000;opacity:0.7;stroke:#ff0000;stroke-linejoin:miter;" x="73.832727" xlink:href="#m30e98023d4" y="233.555578"/>
     <use style="fill:#ff0000;opacity:0.7;stroke:#ff0000;stroke-linejoin:miter;" x="85.027712" xlink:href="#m30e98023d4" y="231.282839"/>
     <use style="fill:#ff0000;opacity:0.7;stroke:#ff0000;stroke-linejoin:miter;" x="96.222696" xlink:href="#m30e98023d4" y="235.229281"/>
     <use style="fill:#ff0000;opacity:0.7;stroke:#ff0000;stroke-linejoin:miter;" x="107.41768" xlink:href="#m30e98023d4" y="201.819861"/>
     <use style="fill:#ff0000;opacity:0.7;stroke:#ff0000;stroke-linejoin:miter;" x="118.612665" xlink:href="#m30e98023d4" y="202.415888"/>
     <use style="fill:#ff0000;opacity:0.7;stroke:#ff0000;stroke-linejoin:miter;" x="129.807649" xlink:href="#m30e98023d4" y="179.307876"/>
     <use style="fill:#ff0000;opacity:0.7;stroke:#ff0000;stroke-linejoin:miter;" x="141.002633" xlink:href="#m30e98023d4" y="177.10184"/>
     <use style="fill:#ff0000;opacity:0.7;stroke:#ff0000;stroke-linejoin:miter;" x="152.197618" xlink:href="#m30e98023d4" y="182.214852"/>
     <use style="fill:#ff0000;opacity:0.7;stroke:#ff0000;stroke-linejoin:miter;" x="163.392602" xlink:href="#m30e98023d4" y="130.248414"/>
     <use style="fill:#ff0000;opacity:0.7;stroke:#ff0000;stroke-linejoin:miter;" x="174.587586" xlink:href="#m30e98023d4" y="131.89143"/>
     <use style="fill:#ff0000;opacity:0.7;stroke:#ff0000;stroke-linejoin:miter;" x="185.782571" xlink:href="#m30e98023d4" y="256.720324"/>
     <use style="fill:#ff0000;opacity:0.7;stroke:#ff0000;stroke-linejoin:miter;" x="196.977555" xlink:href="#m30e98023d4" y="154.245404"/>
     <use style="fill:#ff0000;opacity:0.7;stroke:#ff0000;stroke-linejoin:miter;" x="208.172539" xlink:href="#m30e98023d4" y="112.599496"/>
     <use style="fill:#ff0000;opacity:0.7;stroke:#ff0000;stroke-linejoin:miter;" x="219.367524" xlink:href="#m30e98023d4" y="235.682029"/>
     <use style="fill:#ff0000;opacity:0.7;stroke:#ff0000;stroke-linejoin:miter;" x="230.562508" xlink:href="#m30e98023d4" y="120.639294"/>
     <use style="fill:#ff0000;opacity:0.7;stroke:#ff0000;stroke-linejoin:miter;" x="241.757492" xlink:href="#m30e98023d4" y="186.955735"/>
     <use style="fill:#ff0000;opacity:0.7;stroke:#ff0000;stroke-linejoin:miter;" x="252.952476" xlink:href="#m30e98023d4" y="73.03647"/>
     <use style="fill:#ff0000;opacity:0.7;stroke:#ff0000;stroke-linejoin:miter;" x="264.147461" xlink:href="#m30e98023d4" y="74.239871"/>
     <use style="fill:#ff0000;opacity:0.7;stroke:#ff0000;stroke-linejoin:miter;" x="275.342445" xlink:href="#m30e98023d4" y="142.328908"/>
     <use style="fill:#ff0000;opacity:0.7;stroke:#ff0000;stroke-linejoin:miter;" x="286.537429" xlink:href="#m30e98023d4" y="53.568"/>
     <use style="fill:#ff0000;opacity:0.7;stroke:#ff0000;stroke-linejoin:miter;" x="297.732414" xlink:href="#m30e98023d4" y="295.422551"/>
     <use style="fill:#ff0000;opacity:0.7;stroke:#ff0000;stroke-linejoin:miter;" x="308.927398" xlink:href="#m30e98023d4" y="293.595634"/>
     <use style="fill:#ff0000;opacity:0.7;stroke:#ff0000;stroke-linejoin:miter;" x="320.122382" xlink:href="#m30e98023d4" y="292.62798"/>
     <use style="fill:#ff0000;opacity:0.7;stroke:#ff0000;stroke-linejoin:miter;" x="331.317367" xlink:href="#m30e98023d4" y="293.915072"/>
     <use style="fill:#ff0000;opacity:0.7;stroke:#ff0000;stroke-linejoin:miter;" x="342.512351" xlink:href="#m30e98023d4" y="293.670141"/>
     <use style="fill:#ff0000;opacity:0.7;stroke:#ff0000;stroke-linejoin:miter;" x="353.707335" xlink:href="#m30e98023d4" y="292.314403"/>
     <use style="fill:#ff0000;opacity:0.7;stroke:#ff0000;stroke-linejoin:miter;" x="364.90232" xlink:href="#m30e98023d4" y="291.268637"/>
     <use style="fill:#ff0000;opacity:0.7;stroke:#ff0000;stroke-linejoin:miter;" x="376.097304" xlink:href="#m30e98023d4" y="289.805197"/>
     <use style="fill:#ff0000;opacity:0.7;stroke:#ff0000;stroke-linejoin:miter;" x="387.292288" xlink:href="#m30e98023d4" y="289.690035"/>
     <use style="fill:#ff0000;opacity:0.7;stroke:#ff0000;stroke-linejoin:miter;" x="398.487273" xlink:href="#m30e98023d4" y="287.802057"/>
    </g>
   </g>
   <g id="line2d_30">
    <path clip-path="url(#p29a4bcbbaa)" d="M 73.832727 247.723341 
L 85.027712 243.895165 
L 96.222696 243.898958 
L 107.41768 221.103269 
L 118.612665 216.72671 
L 129.807649 192.73273 
L 141.002633 191.738839 
L 152.197618 193.484197 
L 163.392602 162.40309 
L 174.587586 162.873173 
L 185.782571 267.721731 
L 196.977555 166.334486 
L 208.172539 118.927193 
L 219.367524 257.696222 
L 230.562508 128.343604 
L 241.757492 226.205279 
L 252.952476 81.115637 
L 264.147461 77.950472 
L 275.342445 167.745266 
L 286.537429 63.639963 
L 297.732414 295.488 
L 308.927398 293.403426 
L 320.122382 291.818461 
L 331.317367 294.142136 
L 342.512351 293.798938 
L 353.707335 292.043582 
L 364.90232 291.488146 
L 376.097304 289.44849 
L 387.292288 289.572804 
L 398.487273 286.387641 
" style="fill:none;opacity:0.7;stroke:#0000ff;stroke-linecap:square;stroke-width:1.5;"/>
    <defs>
     <path d="M 0 3 
C 0.795609 3 1.55874 2.683901 2.12132 2.12132 
C 2.683901 1.55874 3 0.795609 3 0 
C 3 -0.795609 2.683901 -1.55874 2.12132 -2.12132 
C 1.55874 -2.683901 0.795609 -3 0 -3 
C -0.795609 -3 -1.55874 -2.683901 -2.12132 -2.12132 
C -2.683901 -1.55874 -3 -0.795609 -3 0 
C -3 0.795609 -2.683901 1.55874 -2.12132 2.12132 
C -1.55874 2.683901 -0.795609 3 0 3 
z
" id="mac1ff82722" style="stroke:#0000ff;"/>
    </defs>
    <g clip-path="url(#p29a4bcbbaa)">
     <use style="fill:#0000ff;opacity:0.7;stroke:#0000ff;" x="73.832727" xlink:href="#mac1ff82722" y="247.723341"/>
     <use style="fill:#0000ff;opacity:0.7;stroke:#0000ff;" x="85.027712" xlink:href="#mac1ff82722" y="243.895165"/>
     <use style="fill:#0000ff;opacity:0.7;stroke:#0000ff;" x="96.222696" xlink:href="#mac1ff82722" y="243.898958"/>
     <use style="fill:#0000ff;opacity:0.7;stroke:#0000ff;" x="107.41768" xlink:href="#mac1ff82722" y="221.103269"/>
     <use style="fill:#0000ff;opacity:0.7;stroke:#0000ff;" x="118.612665" xlink:href="#mac1ff82722" y="216.72671"/>
     <use style="fill:#0000ff;opacity:0.7;stroke:#0000ff;" x="129.807649" xlink:href="#mac1ff82722" y="192.73273"/>
     <use style="fill:#0000ff;opacity:0.7;stroke:#0000ff;" x="141.002633" xlink:href="#mac1ff82722" y="191.738839"/>
     <use style="fill:#0000ff;opacity:0.7;stroke:#0000ff;" x="152.197618" xlink:href="#mac1ff82722" y="193.484197"/>
     <use style="fill:#0000ff;opacity:0.7;stroke:#0000ff;" x="163.392602" xlink:href="#mac1ff82722" y="162.40309"/>
     <use style="fill:#0000ff;opacity:0.7;stroke:#0000ff;" x="174.587586" xlink:href="#mac1ff82722" y="162.873173"/>
     <use style="fill:#0000ff;opacity:0.7;stroke:#0000ff;" x="185.782571" xlink:href="#mac1ff82722" y="267.721731"/>
     <use style="fill:#0000ff;opacity:0.7;stroke:#0000ff;" x="196.977555" xlink:href="#mac1ff82722" y="166.334486"/>
     <use style="fill:#0000ff;opacity:0.7;stroke:#0000ff;" x="208.172539" xlink:href="#mac1ff82722" y="118.927193"/>
     <use style="fill:#0000ff;opacity:0.7;stroke:#0000ff;" x="219.367524" xlink:href="#mac1ff82722" y="257.696222"/>
     <use style="fill:#0000ff;opacity:0.7;stroke:#0000ff;" x="230.562508" xlink:href="#mac1ff82722" y="128.343604"/>
     <use style="fill:#0000ff;opacity:0.7;stroke:#0000ff;" x="241.757492" xlink:href="#mac1ff82722" y="226.205279"/>
     <use style="fill:#0000ff;opacity:0.7;stroke:#0000ff;" x="252.952476" xlink:href="#mac1ff82722" y="81.115637"/>
     <use style="fill:#0000ff;opacity:0.7;stroke:#0000ff;" x="264.147461" xlink:href="#mac1ff82722" y="77.950472"/>
     <use style="fill:#0000ff;opacity:0.7;stroke:#0000ff;" x="275.342445" xlink:href="#mac1ff82722" y="167.745266"/>
     <use style="fill:#0000ff;opacity:0.7;stroke:#0000ff;" x="286.537429" xlink:href="#mac1ff82722" y="63.639963"/>
     <use style="fill:#0000ff;opacity:0.7;stroke:#0000ff;" x="297.732414" xlink:href="#mac1ff82722" y="295.488"/>
     <use style="fill:#0000ff;opacity:0.7;stroke:#0000ff;" x="308.927398" xlink:href="#mac1ff82722" y="293.403426"/>
     <use style="fill:#0000ff;opacity:0.7;stroke:#0000ff;" x="320.122382" xlink:href="#mac1ff82722" y="291.818461"/>
     <use style="fill:#0000ff;opacity:0.7;stroke:#0000ff;" x="331.317367" xlink:href="#mac1ff82722" y="294.142136"/>
     <use style="fill:#0000ff;opacity:0.7;stroke:#0000ff;" x="342.512351" xlink:href="#mac1ff82722" y="293.798938"/>
     <use style="fill:#0000ff;opacity:0.7;stroke:#0000ff;" x="353.707335" xlink:href="#mac1ff82722" y="292.043582"/>
     <use style="fill:#0000ff;opacity:0.7;stroke:#0000ff;" x="364.90232" xlink:href="#mac1ff82722" y="291.488146"/>
     <use style="fill:#0000ff;opacity:0.7;stroke:#0000ff;" x="376.097304" xlink:href="#mac1ff82722" y="289.44849"/>
     <use style="fill:#0000ff;opacity:0.7;stroke:#0000ff;" x="387.292288" xlink:href="#mac1ff82722" y="289.572804"/>
     <use style="fill:#0000ff;opacity:0.7;stroke:#0000ff;" x="398.487273" xlink:href="#mac1ff82722" y="286.387641"/>
    </g>
   </g>
   <g id="patch_3">
    <path d="M 57.6 307.584 
L 57.6 41.472 
" style="fill:none;stroke:#000000;stroke-linecap:square;stroke-linejoin:miter;stroke-width:0.8;"/>
   </g>
   <g id="patch_4">
    <path d="M 414.72 307.584 
L 414.72 41.472 
" style="fill:none;stroke:#000000;stroke-linecap:square;stroke-linejoin:miter;stroke-width:0.8;"/>
   </g>
   <g id="patch_5">
    <path d="M 57.6 307.584 
L 414.72 307.584 
" style="fill:none;stroke:#000000;stroke-linecap:square;stroke-linejoin:miter;stroke-width:0.8;"/>
   </g>
   <g id="patch_6">
    <path d="M 57.6 41.472 
L 414.72 41.472 
" style="fill:none;stroke:#000000;stroke-linecap:square;stroke-linejoin:miter;stroke-width:0.8;"/>
   </g>
   <g id="legend_1">
    <g id="patch_7">
     <path d="M 64.6 78.82825 
L 242.110938 78.82825 
Q 244.110938 78.82825 244.110938 76.82825 
L 244.110938 48.472 
Q 244.110938 46.472 242.110938 46.472 
L 64.6 46.472 
Q 62.6 46.472 62.6 48.472 
L 62.6 76.82825 
Q 62.6 78.82825 64.6 78.82825 
z
" style="fill:#ffffff;opacity:0.8;stroke:#cccccc;stroke-linejoin:miter;"/>
    </g>
    <g id="line2d_31">
     <path d="M 66.6 54.570437 
L 86.6 54.570437 
" style="fill:none;opacity:0.7;stroke:#ff0000;stroke-linecap:square;stroke-width:1.5;"/>
    </g>
    <g id="line2d_32">
     <g>
      <use style="fill:#ff0000;opacity:0.7;stroke:#ff0000;stroke-linejoin:miter;" x="76.6" xlink:href="#m30e98023d4" y="54.570437"/>
     </g>
    </g>
    <g id="text_18">
     <!-- 001indinv-apalache-unstable -->
     <defs>
      <path d="M 9.421875 54.6875 
L 18.40625 54.6875 
L 18.40625 0 
L 9.421875 0 
z
M 9.421875 75.984375 
L 18.40625 75.984375 
L 18.40625 64.59375 
L 9.421875 64.59375 
z
" id="DejaVuSans-69"/>
      <path d="M 45.40625 46.390625 
L 45.40625 75.984375 
L 54.390625 75.984375 
L 54.390625 0 
L 45.40625 0 
L 45.40625 8.203125 
Q 42.578125 3.328125 38.25 0.953125 
Q 33.9375 -1.421875 27.875 -1.421875 
Q 17.96875 -1.421875 11.734375 6.484375 
Q 5.515625 14.40625 5.515625 27.296875 
Q 5.515625 40.1875 11.734375 48.09375 
Q 17.96875 56 27.875 56 
Q 33.9375 56 38.25 53.625 
Q 42.578125 51.265625 45.40625 46.390625 
z
M 14.796875 27.296875 
Q 14.796875 17.390625 18.875 11.75 
Q 22.953125 6.109375 30.078125 6.109375 
Q 37.203125 6.109375 41.296875 11.75 
Q 45.40625 17.390625 45.40625 27.296875 
Q 45.40625 37.203125 41.296875 42.84375 
Q 37.203125 48.484375 30.078125 48.484375 
Q 22.953125 48.484375 18.875 42.84375 
Q 14.796875 37.203125 14.796875 27.296875 
z
" id="DejaVuSans-64"/>
      <path d="M 2.984375 54.6875 
L 12.5 54.6875 
L 29.59375 8.796875 
L 46.6875 54.6875 
L 56.203125 54.6875 
L 35.6875 0 
L 23.484375 0 
z
" id="DejaVuSans-76"/>
      <path d="M 4.890625 31.390625 
L 31.203125 31.390625 
L 31.203125 23.390625 
L 4.890625 23.390625 
z
" id="DejaVuSans-2d"/>
      <path d="M 18.109375 8.203125 
L 18.109375 -20.796875 
L 9.078125 -20.796875 
L 9.078125 54.6875 
L 18.109375 54.6875 
L 18.109375 46.390625 
Q 20.953125 51.265625 25.265625 53.625 
Q 29.59375 56 35.59375 56 
Q 45.5625 56 51.78125 48.09375 
Q 58.015625 40.1875 58.015625 27.296875 
Q 58.015625 14.40625 51.78125 6.484375 
Q 45.5625 -1.421875 35.59375 -1.421875 
Q 29.59375 -1.421875 25.265625 0.953125 
Q 20.953125 3.328125 18.109375 8.203125 
z
M 48.6875 27.296875 
Q 48.6875 37.203125 44.609375 42.84375 
Q 40.53125 48.484375 33.40625 48.484375 
Q 26.265625 48.484375 22.1875 42.84375 
Q 18.109375 37.203125 18.109375 27.296875 
Q 18.109375 17.390625 22.1875 11.75 
Q 26.265625 6.109375 33.40625 6.109375 
Q 40.53125 6.109375 44.609375 11.75 
Q 48.6875 17.390625 48.6875 27.296875 
z
" id="DejaVuSans-70"/>
      <path d="M 9.421875 75.984375 
L 18.40625 75.984375 
L 18.40625 0 
L 9.421875 0 
z
" id="DejaVuSans-6c"/>
      <path d="M 8.5 21.578125 
L 8.5 54.6875 
L 17.484375 54.6875 
L 17.484375 21.921875 
Q 17.484375 14.15625 20.5 10.265625 
Q 23.53125 6.390625 29.59375 6.390625 
Q 36.859375 6.390625 41.078125 11.03125 
Q 45.3125 15.671875 45.3125 23.6875 
L 45.3125 54.6875 
L 54.296875 54.6875 
L 54.296875 0 
L 45.3125 0 
L 45.3125 8.40625 
Q 42.046875 3.421875 37.71875 1 
Q 33.40625 -1.421875 27.6875 -1.421875 
Q 18.265625 -1.421875 13.375 4.4375 
Q 8.5 10.296875 8.5 21.578125 
z
M 31.109375 56 
z
" id="DejaVuSans-75"/>
      <path d="M 44.28125 53.078125 
L 44.28125 44.578125 
Q 40.484375 46.53125 36.375 47.5 
Q 32.28125 48.484375 27.875 48.484375 
Q 21.1875 48.484375 17.84375 46.4375 
Q 14.5 44.390625 14.5 40.28125 
Q 14.5 37.15625 16.890625 35.375 
Q 19.28125 33.59375 26.515625 31.984375 
L 29.59375 31.296875 
Q 39.15625 29.25 43.1875 25.515625 
Q 47.21875 21.78125 47.21875 15.09375 
Q 47.21875 7.46875 41.1875 3.015625 
Q 35.15625 -1.421875 24.609375 -1.421875 
Q 20.21875 -1.421875 15.453125 -0.5625 
Q 10.6875 0.296875 5.421875 2 
L 5.421875 11.28125 
Q 10.40625 8.6875 15.234375 7.390625 
Q 20.0625 6.109375 24.8125 6.109375 
Q 31.15625 6.109375 34.5625 8.28125 
Q 37.984375 10.453125 37.984375 14.40625 
Q 37.984375 18.0625 35.515625 20.015625 
Q 33.0625 21.96875 24.703125 23.78125 
L 21.578125 24.515625 
Q 13.234375 26.265625 9.515625 29.90625 
Q 5.8125 33.546875 5.8125 39.890625 
Q 5.8125 47.609375 11.28125 51.796875 
Q 16.75 56 26.8125 56 
Q 31.78125 56 36.171875 55.265625 
Q 40.578125 54.546875 44.28125 53.078125 
z
" id="DejaVuSans-73"/>
      <path d="M 18.3125 70.21875 
L 18.3125 54.6875 
L 36.8125 54.6875 
L 36.8125 47.703125 
L 18.3125 47.703125 
L 18.3125 18.015625 
Q 18.3125 11.328125 20.140625 9.421875 
Q 21.96875 7.515625 27.59375 7.515625 
L 36.8125 7.515625 
L 36.8125 0 
L 27.59375 0 
Q 17.1875 0 13.234375 3.875 
Q 9.28125 7.765625 9.28125 18.015625 
L 9.28125 47.703125 
L 2.6875 47.703125 
L 2.6875 54.6875 
L 9.28125 54.6875 
L 9.28125 70.21875 
z
" id="DejaVuSans-74"/>
     </defs>
     <g transform="translate(94.6 58.070437)scale(0.1 -0.1)">
      <use xlink:href="#DejaVuSans-30"/>
      <use x="63.623047" xlink:href="#DejaVuSans-30"/>
      <use x="127.246094" xlink:href="#DejaVuSans-31"/>
      <use x="190.869141" xlink:href="#DejaVuSans-69"/>
      <use x="218.652344" xlink:href="#DejaVuSans-6e"/>
      <use x="282.03125" xlink:href="#DejaVuSans-64"/>
      <use x="345.507812" xlink:href="#DejaVuSans-69"/>
      <use x="373.291016" xlink:href="#DejaVuSans-6e"/>
      <use x="436.669922" xlink:href="#DejaVuSans-76"/>
      <use x="495.818359" xlink:href="#DejaVuSans-2d"/>
      <use x="531.902344" xlink:href="#DejaVuSans-61"/>
      <use x="593.181641" xlink:href="#DejaVuSans-70"/>
      <use x="656.658203" xlink:href="#DejaVuSans-61"/>
      <use x="717.9375" xlink:href="#DejaVuSans-6c"/>
      <use x="745.720703" xlink:href="#DejaVuSans-61"/>
      <use x="807" xlink:href="#DejaVuSans-63"/>
      <use x="861.980469" xlink:href="#DejaVuSans-68"/>
      <use x="925.359375" xlink:href="#DejaVuSans-65"/>
      <use x="986.882812" xlink:href="#DejaVuSans-2d"/>
      <use x="1022.966797" xlink:href="#DejaVuSans-75"/>
      <use x="1086.345703" xlink:href="#DejaVuSans-6e"/>
      <use x="1149.724609" xlink:href="#DejaVuSans-73"/>
      <use x="1201.824219" xlink:href="#DejaVuSans-74"/>
      <use x="1241.033203" xlink:href="#DejaVuSans-61"/>
      <use x="1302.3125" xlink:href="#DejaVuSans-62"/>
      <use x="1365.789062" xlink:href="#DejaVuSans-6c"/>
      <use x="1393.572266" xlink:href="#DejaVuSans-65"/>
     </g>
    </g>
    <g id="line2d_33">
     <path d="M 66.6 69.248562 
L 86.6 69.248562 
" style="fill:none;opacity:0.7;stroke:#0000ff;stroke-linecap:square;stroke-width:1.5;"/>
    </g>
    <g id="line2d_34">
     <g>
      <use style="fill:#0000ff;opacity:0.7;stroke:#0000ff;" x="76.6" xlink:href="#mac1ff82722" y="69.248562"/>
     </g>
    </g>
    <g id="text_19">
     <!-- 001indinv-apalache-card -->
     <g transform="translate(94.6 72.748562)scale(0.1 -0.1)">
      <use xlink:href="#DejaVuSans-30"/>
      <use x="63.623047" xlink:href="#DejaVuSans-30"/>
      <use x="127.246094" xlink:href="#DejaVuSans-31"/>
      <use x="190.869141" xlink:href="#DejaVuSans-69"/>
      <use x="218.652344" xlink:href="#DejaVuSans-6e"/>
      <use x="282.03125" xlink:href="#DejaVuSans-64"/>
      <use x="345.507812" xlink:href="#DejaVuSans-69"/>
      <use x="373.291016" xlink:href="#DejaVuSans-6e"/>
      <use x="436.669922" xlink:href="#DejaVuSans-76"/>
      <use x="495.818359" xlink:href="#DejaVuSans-2d"/>
      <use x="531.902344" xlink:href="#DejaVuSans-61"/>
      <use x="593.181641" xlink:href="#DejaVuSans-70"/>
      <use x="656.658203" xlink:href="#DejaVuSans-61"/>
      <use x="717.9375" xlink:href="#DejaVuSans-6c"/>
      <use x="745.720703" xlink:href="#DejaVuSans-61"/>
      <use x="807" xlink:href="#DejaVuSans-63"/>
      <use x="861.980469" xlink:href="#DejaVuSans-68"/>
      <use x="925.359375" xlink:href="#DejaVuSans-65"/>
      <use x="986.882812" xlink:href="#DejaVuSans-2d"/>
      <use x="1022.966797" xlink:href="#DejaVuSans-63"/>
      <use x="1077.947266" xlink:href="#DejaVuSans-61"/>
      <use x="1139.226562" xlink:href="#DejaVuSans-72"/>
      <use x="1180.324219" xlink:href="#DejaVuSans-64"/>
     </g>
    </g>
   </g>
  </g>
 </g>
 <defs>
  <clipPath id="p29a4bcbbaa">
   <rect height="266.112" width="357.12" x="57.6" y="41.472"/>
  </clipPath>
 </defs>
</svg>
