<svg width="98" height="99" viewBox="0 0 98 99" fill="none" xmlns="http://www.w3.org/2000/svg">
<path fill-rule="evenodd" clip-rule="evenodd" d="M58.898 40.4047C55.9244 39.2323 52.7214 38.6199 49.4867 38.6199C42.6879 38.6199 36.293 41.289 31.4801 46.1354C26.6879 50.9606 24.0256 57.3701 23.9828 64.1828L23.9771 65.0979L24.772 65.5498C28.6035 67.7297 32.9364 68.877 37.327 68.877C37.4477 68.877 37.5694 68.8763 37.6904 68.8741C41.5177 68.8193 45.3042 67.8991 48.7368 66.2C47.6545 65.5949 46.6172 64.9129 45.6312 64.1614C39.6479 66.5181 32.8669 66.2281 27.1281 63.2752C27.6864 51.3201 37.5297 41.743 49.4867 41.743C52.8124 41.743 56.0967 42.4786 59.0637 43.8765C59.1021 42.7191 59.0467 41.559 58.898 40.4047V40.4047Z" fill="#073387"/>
<path fill-rule="evenodd" clip-rule="evenodd" d="M74.9904 63.9704C74.8995 55.5 70.7748 47.7721 63.8993 43.0645C63.9044 44.304 63.8216 45.5427 63.6515 46.7741C68.5365 50.763 71.5153 56.637 71.8408 63.0724C61.3021 68.5034 48.1595 64.6998 42.1727 54.3232C40.5557 51.5204 39.5643 48.3862 39.2729 45.1839C38.2557 45.7386 37.2844 46.3767 36.3672 47.0922C36.8508 50.1742 37.9017 53.1663 39.4699 55.8847C42.8755 61.7876 48.3506 66.0194 54.8859 67.8006C57.1036 68.405 59.3582 68.7046 61.6002 68.7046C65.969 68.7046 70.2903 67.5691 74.2012 65.3448L75.0001 64.8906L74.9904 63.9704Z" fill="#073387"/>
<path fill-rule="evenodd" clip-rule="evenodd" d="M50.3884 20.9722L49.5999 20.5098L48.8114 20.9714C44.9162 23.251 41.6799 26.5194 39.4525 30.423C37.5291 33.7941 36.3913 37.5704 36.1245 41.4251C37.1909 40.7912 38.3018 40.2338 39.4504 39.7576C40.4398 33.4032 44.135 27.6604 49.5984 24.1509C59.6326 30.6028 62.9324 43.9799 56.9053 54.4268C55.2735 57.2562 53.041 59.7024 50.3973 61.5806C51.3848 62.1827 52.4219 62.7057 53.4997 63.1428C55.9436 61.1611 58.0244 58.7334 59.6082 55.9884C66.645 43.7912 62.5093 28.083 50.3884 20.9722V20.9722Z" fill="#073387"/>
<path fill-rule="evenodd" clip-rule="evenodd" d="M49.5844 47.6244C48.1466 47.6244 46.9773 48.7947 46.9773 50.2335C46.9773 51.6715 48.1466 52.8417 49.5844 52.8417C51.0216 52.8417 52.1911 51.6715 52.1911 50.2335C52.1911 48.7947 51.0216 47.6244 49.5844 47.6244ZM49.5844 55.9655C46.4257 55.9655 43.8564 53.3943 43.8564 50.2335C43.8564 47.0726 46.4257 44.5012 49.5844 44.5012C52.7429 44.5012 55.3119 47.0726 55.3119 50.2335C55.3119 53.3943 52.7429 55.9655 49.5844 55.9655Z" fill="#073387"/>
<path fill-rule="evenodd" clip-rule="evenodd" d="M93.2163 45.2945L97.3305 47.8412C97.7472 48.0987 98 48.5547 98 49.0453C98 49.536 97.7462 49.9919 97.3296 50.2485L93.2154 52.7953C93.1807 53.1951 93.1414 53.5958 93.0983 53.9937L96.6339 57.2924C96.9934 57.6266 97.1545 58.1219 97.0571 58.6032C96.9635 59.0854 96.6245 59.4815 96.1648 59.6537L91.6451 61.3438C91.5318 61.7352 91.4129 62.1237 91.2912 62.5104L94.1105 66.427C94.3979 66.8259 94.4569 67.3437 94.2697 67.7959C94.0824 68.25 93.6742 68.574 93.1891 68.6517L88.4232 69.427C88.2378 69.7884 88.0459 70.1442 87.8502 70.499L89.853 74.8931C90.0581 75.3398 90.0159 75.8594 89.7425 76.2676C89.47 76.6768 89.0037 76.9156 88.5159 76.8959L83.6788 76.7264C83.4298 77.041 83.1751 77.3491 82.9167 77.6553L84.0262 82.3677C84.1386 82.8452 83.9972 83.3443 83.6489 83.6917C83.3034 84.0409 82.8015 84.1804 82.323 84.0681L77.6124 82.9585C77.3071 83.2188 76.9972 83.4707 76.6845 83.7207L76.853 88.5586C76.8708 89.0492 76.633 89.5127 76.2247 89.7861C75.8174 90.0586 75.2978 90.0998 74.8511 89.8957L70.456 87.8929C70.1011 88.0867 69.7453 88.2805 69.3858 88.4669L68.6086 93.2308C68.53 93.7149 68.206 94.1259 67.7528 94.3122C67.3006 94.5004 66.7818 94.4396 66.3839 94.154L62.4672 91.3329C62.0805 91.4556 61.6919 91.5754 61.3006 91.6878L59.6105 96.2064C59.4391 96.6652 59.0421 97.0042 58.5599 97.0987C58.0796 97.1961 57.5833 97.035 57.2491 96.6755L53.9513 93.1391C53.5534 93.1849 53.1536 93.2233 52.7528 93.2589L50.206 97.373C49.9485 97.7888 49.4925 98.0435 49.0019 98.0435C48.5112 98.0435 48.0552 97.7878 47.7987 97.373L45.2519 93.2589C44.8511 93.2233 44.4504 93.1849 44.0524 93.1391L40.7537 96.6755C40.4195 97.035 39.9242 97.1961 39.4429 97.0987C38.9607 97.0051 38.5637 96.6652 38.3923 96.2064L36.7022 91.6878C36.3109 91.5754 35.9223 91.4556 35.5356 91.3329L31.6199 94.154C31.2219 94.4396 30.7022 94.5004 30.25 94.3122C29.7968 94.1259 29.4728 93.7158 29.3942 93.2308L28.617 88.4669C28.2566 88.2805 27.9007 88.0895 27.5468 87.8929L23.1517 89.8957C22.7051 90.0998 22.1845 90.0586 21.7781 89.7861C21.3698 89.5127 21.1311 89.0483 21.1498 88.5586L21.3184 83.7207C21.0056 83.4716 20.6957 83.2188 20.3895 82.9585L15.6788 84.0681C15.2004 84.1804 14.6976 84.0409 14.3521 83.6917C14.0037 83.3443 13.8624 82.8452 13.9747 82.3677L15.0843 77.6553C14.8258 77.3491 14.5721 77.041 14.3202 76.7264L9.48502 76.8959C8.99719 76.9156 8.53184 76.6768 8.25843 76.2676C7.98502 75.8594 7.94288 75.3398 8.147 74.8931L10.1507 70.499C9.95412 70.1442 9.76311 69.7884 9.57678 69.427L4.8118 68.6517C4.32772 68.574 3.91854 68.25 3.73034 67.7959C3.54213 67.3437 3.603 66.8259 3.88951 66.427L6.7088 62.5104C6.58614 62.1237 6.46723 61.7352 6.35487 61.3438L1.83427 59.6537C1.37547 59.4815 1.03745 59.0854 0.941948 58.6032C0.846442 58.1229 1.00655 57.6266 1.36517 57.2924L4.90169 53.9937C4.85768 53.5958 4.81835 53.196 4.78465 52.7953L0.670412 50.2485C0.253745 49.9919 0 49.5369 0 49.0453C0 48.5538 0.253745 48.0987 0.670412 47.8412L4.78465 45.2945C4.81835 44.8947 4.85768 44.4939 4.90169 44.096L1.36517 40.7983C1.00655 40.4631 0.846442 39.9678 0.941948 39.4865C1.03745 39.0043 1.37547 38.6073 1.83427 38.436L6.35487 36.7459C6.46723 36.3546 6.58614 35.966 6.7088 35.5793L3.88951 31.6636C3.60393 31.2657 3.54307 30.7479 3.73034 30.2938C3.91854 29.8406 4.32678 29.5167 4.81086 29.438L9.57678 28.6628C9.76311 28.3013 9.95599 27.9455 10.1507 27.5926L8.147 23.1966C7.94382 22.749 7.98502 22.2284 8.25843 21.8221C8.5309 21.4138 8.99719 21.1798 9.48502 21.1938L14.3221 21.3623C14.5721 21.0496 14.8268 20.7406 15.0843 20.4354L13.9747 15.7239C13.8624 15.2454 14.0037 14.7445 14.3521 14.3971C14.6985 14.0507 15.2004 13.9084 15.6788 14.0198L20.3895 15.1302C20.6957 14.8718 21.0056 14.6162 21.3184 14.3662L21.1498 9.52923C21.1311 9.03954 21.3698 8.57419 21.7781 8.30266C22.1845 8.02926 22.7051 7.98713 23.1517 8.19124L27.5468 10.1949C27.9017 9.99926 28.2575 9.80731 28.617 9.62099L29.3942 4.85423C29.4728 4.37109 29.7978 3.96098 30.25 3.77372C30.7032 3.58459 31.2219 3.64545 31.6199 3.93289L35.5375 6.75213C35.9242 6.63041 36.3118 6.5115 36.7032 6.39914L38.3933 1.87863C38.5646 1.41796 38.9616 1.08089 39.4438 0.984449C39.9242 0.889882 40.4204 1.04999 40.7547 1.40766L44.0534 4.94598C44.4513 4.90198 44.8521 4.86172 45.2528 4.82895L47.7996 0.713856C48.0562 0.297197 48.5122 0.043457 49.0028 0.043457C49.4934 0.043457 49.9494 0.297197 50.2069 0.713856L52.7537 4.82895C53.1536 4.86172 53.5543 4.90198 53.9522 4.94598L57.25 1.40766C57.5843 1.04999 58.0796 0.889882 58.5609 0.984449C59.0431 1.07995 59.4401 1.41796 59.6114 1.87863L61.3015 6.39914C61.6929 6.5115 62.0805 6.62947 62.4663 6.75213L66.3848 3.93289C66.7828 3.64638 67.3015 3.58552 67.7537 3.77372C68.2069 3.96098 68.5309 4.37109 68.6095 4.85423L69.3867 9.62099C69.7463 9.80731 70.1021 10.0002 70.4569 10.1949L74.8521 8.19124C75.2987 7.98806 75.8165 8.02926 76.2257 8.30266C76.6339 8.57419 76.8727 9.03954 76.8539 9.52923L76.6845 14.3662C76.9981 14.6162 77.3081 14.8718 77.6133 15.1302L82.324 14.0198C82.8024 13.9074 83.3043 14.0507 83.6498 14.3971C83.9981 14.7445 84.1395 15.2454 84.0272 15.7239L82.9157 20.4354C83.1751 20.7397 83.4298 21.0496 83.6798 21.3623L88.5169 21.1938C89.0094 21.1751 89.471 21.4138 89.7434 21.8221C90.0169 22.2284 90.059 22.749 89.8539 23.1966L87.8511 27.5926C88.0459 27.9455 88.2388 28.3013 88.4242 28.6628L93.1901 29.438C93.6742 29.5176 94.0833 29.8416 94.2706 30.2938C94.4579 30.7479 94.3989 31.2657 94.1114 31.6636L91.2921 35.5793C91.4139 35.966 91.5328 36.3546 91.6461 36.7459L96.1657 38.436C96.6255 38.6073 96.9635 39.0043 97.0581 39.4865C97.1554 39.9668 96.9944 40.4631 96.6348 40.7983L93.0992 44.096C93.1423 44.4939 93.1817 44.8937 93.2163 45.2945ZM48.9943 90.4746C71.8792 90.4746 90.4311 71.9227 90.4311 49.0377C90.4311 26.1528 71.8792 7.60086 48.9943 7.60086C26.1093 7.60086 7.55741 26.1528 7.55741 49.0377C7.55741 71.9227 26.1093 90.4746 48.9943 90.4746Z" fill="#073387"/>
</svg>
